# Blender v2.93.0 OBJ File: '3dMap.blend'
# www.blender.org
o floor_A_B_立方体.450
v -1.650000 3.187500 -29.174999
v -1.650000 3.375000 -29.174999
v 1.650000 3.187500 -29.174999
v 1.650000 3.375000 -29.174999
v -1.650000 3.187500 -20.174999
v -1.650000 3.375000 -20.174999
v 1.650000 3.187500 -20.174999
v 1.650000 3.375000 -20.174999
vn 0.0000 0.0000 -1.0000
vn 1.0000 0.0000 0.0000
vn 0.0000 0.0000 1.0000
vn -1.0000 0.0000 0.0000
vn 0.0000 -1.0000 0.0000
vn 0.0000 1.0000 0.0000
s off
f 1//1 2//1 4//1 3//1
f 3//2 4//2 8//2 7//2
f 7//3 8//3 6//3 5//3
f 5//4 6//4 2//4 1//4
f 3//5 7//5 5//5 1//5
f 8//6 4//6 2//6 6//6
o pillar_A_B_立方体.445
v 1.350000 3.375000 -29.174999
v 1.350000 6.187500 -29.174999
v 1.650000 3.375000 -29.174999
v 1.650000 6.187500 -29.174999
v 1.350000 3.375000 -28.875000
v 1.350000 6.187500 -28.875000
v 1.650000 3.375000 -28.875000
v 1.650000 6.187500 -28.875000
v 1.350000 3.375000 -26.174999
v 1.350000 6.187500 -26.174999
v 1.650000 3.375000 -26.174999
v 1.650000 6.187500 -26.174999
v 1.350000 3.375000 -25.875000
v 1.350000 6.187500 -25.875000
v 1.650000 3.375000 -25.875000
v 1.650000 6.187500 -25.875000
v 1.350000 3.375000 -23.174999
v 1.350000 6.187500 -23.174999
v 1.650000 3.375000 -23.174999
v 1.650000 6.187500 -23.174999
v 1.350000 3.375000 -22.875000
v 1.350000 6.187500 -22.875000
v 1.650000 3.375000 -22.875000
v 1.650000 6.187500 -22.875000
v -1.350000 3.375000 -29.174999
v -1.350000 6.187500 -29.174999
v -1.650000 3.375000 -29.174999
v -1.650000 6.187500 -29.174999
v -1.350000 3.375000 -28.875000
v -1.350000 6.187500 -28.875000
v -1.650000 3.375000 -28.875000
v -1.650000 6.187500 -28.875000
v -1.350000 3.375000 -26.174999
v -1.350000 6.187500 -26.174999
v -1.650000 3.375000 -26.174999
v -1.650000 6.187500 -26.174999
v -1.350000 3.375000 -25.875000
v -1.350000 6.187500 -25.875000
v -1.650000 3.375000 -25.875000
v -1.650000 6.187500 -25.875000
v -1.350000 3.375000 -23.174999
v -1.350000 6.187500 -23.174999
v -1.650000 3.375000 -23.174999
v -1.650000 6.187500 -23.174999
v -1.350000 3.375000 -22.875000
v -1.350000 6.187500 -22.875000
v -1.650000 3.375000 -22.875000
v -1.650000 6.187500 -22.875000
vn 0.0000 0.0000 -1.0000
vn 1.0000 0.0000 0.0000
vn 0.0000 0.0000 1.0000
vn -1.0000 0.0000 0.0000
vn 0.0000 -1.0000 0.0000
vn 0.0000 1.0000 0.0000
s off
f 9//7 10//7 12//7 11//7
f 11//8 12//8 16//8 15//8
f 15//9 16//9 14//9 13//9
f 13//10 14//10 10//10 9//10
f 11//11 15//11 13//11 9//11
f 16//12 12//12 10//12 14//12
f 17//7 18//7 20//7 19//7
f 19//8 20//8 24//8 23//8
f 23//9 24//9 22//9 21//9
f 21//10 22//10 18//10 17//10
f 19//11 23//11 21//11 17//11
f 24//12 20//12 18//12 22//12
f 25//7 26//7 28//7 27//7
f 27//8 28//8 32//8 31//8
f 31//9 32//9 30//9 29//9
f 29//10 30//10 26//10 25//10
f 27//11 31//11 29//11 25//11
f 32//12 28//12 26//12 30//12
f 33//7 35//7 36//7 34//7
f 35//10 39//10 40//10 36//10
f 39//9 37//9 38//9 40//9
f 37//8 33//8 34//8 38//8
f 35//11 33//11 37//11 39//11
f 40//12 38//12 34//12 36//12
f 41//7 43//7 44//7 42//7
f 43//10 47//10 48//10 44//10
f 47//9 45//9 46//9 48//9
f 45//8 41//8 42//8 46//8
f 43//11 41//11 45//11 47//11
f 48//12 46//12 42//12 44//12
f 49//7 51//7 52//7 50//7
f 51//10 55//10 56//10 52//10
f 55//9 53//9 54//9 56//9
f 53//8 49//8 50//8 54//8
f 51//11 49//11 53//11 55//11
f 56//12 54//12 50//12 52//12
o underWindow_A_B_立方体.448
v 1.350000 3.375000 -28.875000
v 1.350000 4.125000 -28.875000
v 1.650000 3.375000 -28.875000
v 1.650000 4.125000 -28.875000
v 1.350000 3.375000 -26.174999
v 1.350000 4.125000 -26.174999
v 1.650000 3.375000 -26.174999
v 1.650000 4.125000 -26.174999
v 1.350000 3.375000 -25.875000
v 1.350000 4.125000 -25.875000
v 1.650000 3.375000 -25.875000
v 1.650000 4.125000 -25.875000
v 1.350000 3.375000 -23.174999
v 1.350000 4.125000 -23.174999
v 1.650000 3.375000 -23.174999
v 1.650000 4.125000 -23.174999
v 1.350000 3.375000 -22.875000
v 1.350000 4.125000 -22.875000
v 1.650000 3.375000 -22.875000
v 1.650000 4.125000 -22.875000
v 1.350000 3.375000 -20.174999
v 1.350000 4.125000 -20.174999
v 1.650000 3.375000 -20.174999
v 1.650000 4.125000 -20.174999
v -1.350000 3.375000 -28.875000
v -1.350000 4.125000 -28.875000
v -1.650000 3.375000 -28.875000
v -1.650000 4.125000 -28.875000
v -1.350000 3.375000 -26.174999
v -1.350000 4.125000 -26.174999
v -1.650000 3.375000 -26.174999
v -1.650000 4.125000 -26.174999
v -1.350000 3.375000 -25.875000
v -1.350000 4.125000 -25.875000
v -1.650000 3.375000 -25.875000
v -1.650000 4.125000 -25.875000
v -1.350000 3.375000 -23.174999
v -1.350000 4.125000 -23.174999
v -1.650000 3.375000 -23.174999
v -1.650000 4.125000 -23.174999
v -1.350000 3.375000 -22.875000
v -1.350000 4.125000 -22.875000
v -1.650000 3.375000 -22.875000
v -1.650000 4.125000 -22.875000
v -1.350000 3.375000 -20.174999
v -1.350000 4.125000 -20.174999
v -1.650000 3.375000 -20.174999
v -1.650000 4.125000 -20.174999
vn 0.0000 0.0000 -1.0000
vn 1.0000 0.0000 0.0000
vn 0.0000 0.0000 1.0000
vn -1.0000 0.0000 0.0000
vn 0.0000 -1.0000 0.0000
vn 0.0000 1.0000 0.0000
s off
f 57//13 58//13 60//13 59//13
f 59//14 60//14 64//14 63//14
f 63//15 64//15 62//15 61//15
f 61//16 62//16 58//16 57//16
f 59//17 63//17 61//17 57//17
f 64//18 60//18 58//18 62//18
f 65//13 66//13 68//13 67//13
f 67//14 68//14 72//14 71//14
f 71//15 72//15 70//15 69//15
f 69//16 70//16 66//16 65//16
f 67//17 71//17 69//17 65//17
f 72//18 68//18 66//18 70//18
f 73//13 74//13 76//13 75//13
f 75//14 76//14 80//14 79//14
f 79//15 80//15 78//15 77//15
f 77//16 78//16 74//16 73//16
f 75//17 79//17 77//17 73//17
f 80//18 76//18 74//18 78//18
f 81//13 83//13 84//13 82//13
f 83//16 87//16 88//16 84//16
f 87//15 85//15 86//15 88//15
f 85//14 81//14 82//14 86//14
f 83//17 81//17 85//17 87//17
f 88//18 86//18 82//18 84//18
f 89//13 91//13 92//13 90//13
f 91//16 95//16 96//16 92//16
f 95//15 93//15 94//15 96//15
f 93//14 89//14 90//14 94//14
f 91//17 89//17 93//17 95//17
f 96//18 94//18 90//18 92//18
f 97//13 99//13 100//13 98//13
f 99//16 103//16 104//16 100//16
f 103//15 101//15 102//15 104//15
f 101//14 97//14 98//14 102//14
f 99//17 97//17 101//17 103//17
f 104//18 102//18 98//18 100//18
