# Blender v2.93.0 OBJ File: '3dMap.blend'
# www.blender.org
o base_B1_立方体.453
v 10.275000 -0.300000 -20.200001
v 10.275000 3.100000 -20.200001
v 10.725000 -0.300000 -20.200001
v 10.725000 3.100000 -20.200001
v 10.275000 -0.300000 -16.549999
v 10.275000 3.100000 -16.549999
v 10.725000 -0.300000 -16.549999
v 10.725000 3.100000 -16.549999
v 10.725000 -0.300000 -17.000000
v 10.725000 -0.300000 -19.750000
v 10.725000 3.100000 -19.750000
v 10.725000 3.100000 -17.000000
v 10.275000 -0.300000 -19.750000
v 10.275000 -0.300000 -17.000000
v 10.275000 3.100000 -17.000000
v 10.275000 3.100000 -19.750000
v 10.275000 2.650000 -20.200001
v 10.725000 2.650000 -20.200001
v 10.725000 2.650000 -16.549999
v 10.275000 2.650000 -16.549999
v 10.275000 2.650000 -17.000000
v 10.275000 2.650000 -19.750000
v 10.725000 2.650000 -19.750000
v 10.725000 2.650000 -17.000000
v 1.275000 -0.300000 -20.200001
v 1.275000 3.100000 -20.200001
v 1.725000 -0.300000 -20.200001
v 1.725000 3.100000 -20.200001
v 1.275000 -0.300000 -16.549999
v 1.275000 3.100000 -16.549999
v 1.725000 -0.300000 -16.549999
v 1.725000 3.100000 -16.549999
v 1.725000 -0.300000 -17.000000
v 1.725000 -0.300000 -19.750000
v 1.725000 3.100000 -19.750000
v 1.725000 3.100000 -17.000000
v 1.275000 -0.300000 -19.750000
v 1.275000 -0.300000 -17.000000
v 1.275000 3.100000 -17.000000
v 1.275000 3.100000 -19.750000
v 1.275000 2.650000 -20.200001
v 1.725000 2.650000 -20.200001
v 1.725000 2.650000 -16.549999
v 1.275000 2.650000 -16.549999
v 1.275000 2.650000 -17.000000
v 1.275000 2.650000 -19.750000
v 1.725000 2.650000 -19.750000
v 1.725000 2.650000 -17.000000
v -10.275000 -0.300000 -20.200001
v -10.275000 3.100000 -20.200001
v -10.725000 -0.300000 -20.200001
v -10.725000 3.100000 -20.200001
v -10.275000 -0.300000 -16.549999
v -10.275000 3.100000 -16.549999
v -10.725000 -0.300000 -16.549999
v -10.725000 3.100000 -16.549999
v -10.725000 -0.300000 -17.000000
v -10.725000 -0.300000 -19.750000
v -10.725000 3.100000 -19.750000
v -10.725000 3.100000 -17.000000
v -10.275000 -0.300000 -19.750000
v -10.275000 -0.300000 -17.000000
v -10.275000 3.100000 -17.000000
v -10.275000 3.100000 -19.750000
v -10.275000 2.650000 -20.200001
v -10.725000 2.650000 -20.200001
v -10.725000 2.650000 -16.549999
v -10.275000 2.650000 -16.549999
v -10.275000 2.650000 -17.000000
v -10.275000 2.650000 -19.750000
v -10.725000 2.650000 -19.750000
v -10.725000 2.650000 -17.000000
v -1.275000 -0.300000 -20.200001
v -1.275000 3.100000 -20.200001
v -1.725000 -0.300000 -20.200001
v -1.725000 3.100000 -20.200001
v -1.275000 -0.300000 -16.549999
v -1.275000 3.100000 -16.549999
v -1.725000 -0.300000 -16.549999
v -1.725000 3.100000 -16.549999
v -1.725000 -0.300000 -17.000000
v -1.725000 -0.300000 -19.750000
v -1.725000 3.100000 -19.750000
v -1.725000 3.100000 -17.000000
v -1.275000 -0.300000 -19.750000
v -1.275000 -0.300000 -17.000000
v -1.275000 3.100000 -17.000000
v -1.275000 3.100000 -19.750000
v -1.275000 2.650000 -20.200001
v -1.725000 2.650000 -20.200001
v -1.725000 2.650000 -16.549999
v -1.275000 2.650000 -16.549999
v -1.275000 2.650000 -17.000000
v -1.275000 2.650000 -19.750000
v -1.725000 2.650000 -19.750000
v -1.725000 2.650000 -17.000000
vn 0.0000 0.0000 -1.0000
vn 1.0000 0.0000 0.0000
vn 0.0000 0.0000 1.0000
vn -1.0000 0.0000 0.0000
vn 0.0000 -1.0000 0.0000
vn 0.0000 1.0000 0.0000
s off
f 17//1 2//1 4//1 18//1
f 24//2 12//2 8//2 19//2
f 19//3 8//3 6//3 20//3
f 22//4 16//4 2//4 17//4
f 9//5 7//5 5//5 14//5
f 11//6 4//6 2//6 16//6
f 8//6 12//6 15//6 6//6
f 12//6 11//6 16//6 15//6
f 3//5 10//5 13//5 1//5
f 21//1 24//1 9//1 14//1
f 20//4 6//4 15//4 21//4
f 21//4 15//4 16//4 22//4
f 18//2 4//2 11//2 23//2
f 23//2 11//2 12//2 24//2
f 3//2 18//2 23//2 10//2
f 5//4 20//4 21//4 14//4
f 13//4 22//4 17//4 1//4
f 7//3 19//3 20//3 5//3
f 9//2 24//2 19//2 7//2
f 1//1 17//1 18//1 3//1
f 24//5 21//5 22//5 23//5
f 23//3 22//3 13//3 10//3
f 41//1 26//1 28//1 42//1
f 48//2 36//2 32//2 43//2
f 43//3 32//3 30//3 44//3
f 46//4 40//4 26//4 41//4
f 33//5 31//5 29//5 38//5
f 35//6 28//6 26//6 40//6
f 32//6 36//6 39//6 30//6
f 36//6 35//6 40//6 39//6
f 27//5 34//5 37//5 25//5
f 45//1 48//1 33//1 38//1
f 44//4 30//4 39//4 45//4
f 45//4 39//4 40//4 46//4
f 42//2 28//2 35//2 47//2
f 47//2 35//2 36//2 48//2
f 27//2 42//2 47//2 34//2
f 29//4 44//4 45//4 38//4
f 37//4 46//4 41//4 25//4
f 31//3 43//3 44//3 29//3
f 33//2 48//2 43//2 31//2
f 25//1 41//1 42//1 27//1
f 48//5 45//5 46//5 47//5
f 47//3 46//3 37//3 34//3
f 65//1 66//1 52//1 50//1
f 72//4 67//4 56//4 60//4
f 67//3 68//3 54//3 56//3
f 70//2 65//2 50//2 64//2
f 57//5 62//5 53//5 55//5
f 59//6 64//6 50//6 52//6
f 56//6 54//6 63//6 60//6
f 60//6 63//6 64//6 59//6
f 51//5 49//5 61//5 58//5
f 69//1 62//1 57//1 72//1
f 68//2 69//2 63//2 54//2
f 69//2 70//2 64//2 63//2
f 66//4 71//4 59//4 52//4
f 71//4 72//4 60//4 59//4
f 51//4 58//4 71//4 66//4
f 53//2 62//2 69//2 68//2
f 61//2 49//2 65//2 70//2
f 55//3 53//3 68//3 67//3
f 57//4 55//4 67//4 72//4
f 49//1 51//1 66//1 65//1
f 72//5 71//5 70//5 69//5
f 71//3 58//3 61//3 70//3
f 89//1 90//1 76//1 74//1
f 96//4 91//4 80//4 84//4
f 91//3 92//3 78//3 80//3
f 94//2 89//2 74//2 88//2
f 81//5 86//5 77//5 79//5
f 83//6 88//6 74//6 76//6
f 80//6 78//6 87//6 84//6
f 84//6 87//6 88//6 83//6
f 75//5 73//5 85//5 82//5
f 93//1 86//1 81//1 96//1
f 92//2 93//2 87//2 78//2
f 93//2 94//2 88//2 87//2
f 90//4 95//4 83//4 76//4
f 95//4 96//4 84//4 83//4
f 75//4 82//4 95//4 90//4
f 77//2 86//2 93//2 92//2
f 85//2 73//2 89//2 94//2
f 79//3 77//3 92//3 91//3
f 81//4 79//4 91//4 96//4
f 73//1 75//1 90//1 89//1
f 96//5 95//5 94//5 93//5
f 95//3 82//3 85//3 94//3
o floor_B1_立方体.085
v -13.500000 3.187500 -20.174999
v -13.500000 3.375000 -20.174999
v 13.500000 3.187500 -20.174999
v 13.500000 3.375000 -20.174999
v -13.500000 3.187500 -16.575001
v -13.500000 3.375000 -16.575001
v 13.500000 3.187500 -16.575001
v 13.500000 3.375000 -16.575001
vn 0.0000 0.0000 -1.0000
vn 1.0000 0.0000 0.0000
vn 0.0000 0.0000 1.0000
vn -1.0000 0.0000 0.0000
vn 0.0000 -1.0000 0.0000
vn 0.0000 1.0000 0.0000
s off
f 97//7 98//7 100//7 99//7
f 99//8 100//8 104//8 103//8
f 103//9 104//9 102//9 101//9
f 101//10 102//10 98//10 97//10
f 99//11 103//11 101//11 97//11
f 104//12 100//12 98//12 102//12
o pillar_B1_立方体.089
v 13.350000 3.375000 -20.174999
v 13.350000 6.187500 -20.174999
v 13.650000 3.375000 -20.174999
v 13.650000 6.187500 -20.174999
v 13.350000 3.375000 -19.875000
v 13.350000 6.187500 -19.875000
v 13.650000 3.375000 -19.875000
v 13.650000 6.187500 -19.875000
v 10.350000 3.375000 -20.174999
v 10.350000 6.187500 -20.174999
v 10.650000 3.375000 -20.174999
v 10.650000 6.187500 -20.174999
v 10.350000 3.375000 -19.875000
v 10.350000 6.187500 -19.875000
v 10.650000 3.375000 -19.875000
v 10.650000 6.187500 -19.875000
v 7.350000 3.375000 -20.174999
v 7.350000 6.187500 -20.174999
v 7.650000 3.375000 -20.174999
v 7.650000 6.187500 -20.174999
v 7.350000 3.375000 -19.875000
v 7.350000 6.187500 -19.875000
v 7.650000 3.375000 -19.875000
v 7.650000 6.187500 -19.875000
v 4.350000 3.375000 -20.174999
v 4.350000 6.187500 -20.174999
v 4.650000 3.375000 -20.174999
v 4.650000 6.187500 -20.174999
v 4.350000 3.375000 -19.875000
v 4.350000 6.187500 -19.875000
v 4.650000 3.375000 -19.875000
v 4.650000 6.187500 -19.875000
v 1.350000 3.375000 -20.174999
v 1.350000 6.187500 -20.174999
v 1.650000 3.375000 -20.174999
v 1.650000 6.187500 -20.174999
v 1.350000 3.375000 -19.875000
v 1.350000 6.187500 -19.875000
v 1.650000 3.375000 -19.875000
v 1.650000 6.187500 -19.875000
v -1.650000 3.375000 -20.174999
v -1.650000 6.187500 -20.174999
v -1.350000 3.375000 -20.174999
v -1.350000 6.187500 -20.174999
v -1.650000 3.375000 -19.875000
v -1.650000 6.187500 -19.875000
v -1.350000 3.375000 -19.875000
v -1.350000 6.187500 -19.875000
v -4.650000 3.375000 -20.174999
v -4.650000 6.187500 -20.174999
v -4.350000 3.375000 -20.174999
v -4.350000 6.187500 -20.174999
v -4.650000 3.375000 -19.875000
v -4.650000 6.187500 -19.875000
v -4.350000 3.375000 -19.875000
v -4.350000 6.187500 -19.875000
v -7.650000 3.375000 -20.174999
v -7.650000 6.187500 -20.174999
v -7.350000 3.375000 -20.174999
v -7.350000 6.187500 -20.174999
v -7.650000 3.375000 -19.875000
v -7.650000 6.187500 -19.875000
v -7.350000 3.375000 -19.875000
v -7.350000 6.187500 -19.875000
v -10.650000 3.375000 -20.174999
v -10.650000 6.187500 -20.174999
v -10.350000 3.375000 -20.174999
v -10.350000 6.187500 -20.174999
v -10.650000 3.375000 -19.875000
v -10.650000 6.187500 -19.875000
v -10.350000 3.375000 -19.875000
v -10.350000 6.187500 -19.875000
v -13.650000 3.375000 -20.174999
v -13.650000 6.187500 -20.174999
v -13.350000 3.375000 -20.174999
v -13.350000 6.187500 -20.174999
v -13.650000 3.375000 -19.875000
v -13.650000 6.187500 -19.875000
v -13.350000 3.375000 -19.875000
v -13.350000 6.187500 -19.875000
v 13.350000 3.375000 -16.575001
v 13.350000 6.187500 -16.575001
v 13.650000 3.375000 -16.575001
v 13.650000 6.187500 -16.575001
v 13.350000 3.375000 -16.875000
v 13.350000 6.187500 -16.875000
v 13.650000 3.375000 -16.875000
v 13.650000 6.187500 -16.875000
v 10.350000 3.375000 -16.575001
v 10.350000 6.187500 -16.575001
v 10.650000 3.375000 -16.575001
v 10.650000 6.187500 -16.575001
v 10.350000 3.375000 -16.875000
v 10.350000 6.187500 -16.875000
v 10.650000 3.375000 -16.875000
v 10.650000 6.187500 -16.875000
v 7.350000 3.375000 -16.575001
v 7.350000 6.187500 -16.575001
v 7.650000 3.375000 -16.575001
v 7.650000 6.187500 -16.575001
v 7.350000 3.375000 -16.875000
v 7.350000 6.187500 -16.875000
v 7.650000 3.375000 -16.875000
v 7.650000 6.187500 -16.875000
v 4.350000 3.375000 -16.575001
v 4.350000 6.187500 -16.575001
v 4.650000 3.375000 -16.575001
v 4.650000 6.187500 -16.575001
v 4.350000 3.375000 -16.875000
v 4.350000 6.187500 -16.875000
v 4.650000 3.375000 -16.875000
v 4.650000 6.187500 -16.875000
v 1.350000 3.375000 -16.575001
v 1.350000 6.187500 -16.575001
v 1.650000 3.375000 -16.575001
v 1.650000 6.187500 -16.575001
v 1.350000 3.375000 -16.875000
v 1.350000 6.187500 -16.875000
v 1.650000 3.375000 -16.875000
v 1.650000 6.187500 -16.875000
v -1.650000 3.375000 -16.575001
v -1.650000 6.187500 -16.575001
v -1.350000 3.375000 -16.575001
v -1.350000 6.187500 -16.575001
v -1.650000 3.375000 -16.875000
v -1.650000 6.187500 -16.875000
v -1.350000 3.375000 -16.875000
v -1.350000 6.187500 -16.875000
v -4.650000 3.375000 -16.575001
v -4.650000 6.187500 -16.575001
v -4.350000 3.375000 -16.575001
v -4.350000 6.187500 -16.575001
v -4.650000 3.375000 -16.875000
v -4.650000 6.187500 -16.875000
v -4.350000 3.375000 -16.875000
v -4.350000 6.187500 -16.875000
v -7.650000 3.375000 -16.575001
v -7.650000 6.187500 -16.575001
v -7.350000 3.375000 -16.575001
v -7.350000 6.187500 -16.575001
v -7.650000 3.375000 -16.875000
v -7.650000 6.187500 -16.875000
v -7.350000 3.375000 -16.875000
v -7.350000 6.187500 -16.875000
v -10.650000 3.375000 -16.575001
v -10.650000 6.187500 -16.575001
v -10.350000 3.375000 -16.575001
v -10.350000 6.187500 -16.575001
v -10.650000 3.375000 -16.875000
v -10.650000 6.187500 -16.875000
v -10.350000 3.375000 -16.875000
v -10.350000 6.187500 -16.875000
v -13.650000 3.375000 -16.575001
v -13.650000 6.187500 -16.575001
v -13.350000 3.375000 -16.575001
v -13.350000 6.187500 -16.575001
v -13.650000 3.375000 -16.875000
v -13.650000 6.187500 -16.875000
v -13.350000 3.375000 -16.875000
v -13.350000 6.187500 -16.875000
vn 0.0000 0.0000 -1.0000
vn 1.0000 0.0000 0.0000
vn 0.0000 0.0000 1.0000
vn -1.0000 0.0000 0.0000
vn 0.0000 -1.0000 0.0000
vn 0.0000 1.0000 0.0000
s off
f 105//13 106//13 108//13 107//13
f 107//14 108//14 112//14 111//14
f 111//15 112//15 110//15 109//15
f 109//16 110//16 106//16 105//16
f 107//17 111//17 109//17 105//17
f 112//18 108//18 106//18 110//18
f 113//13 114//13 116//13 115//13
f 115//14 116//14 120//14 119//14
f 119//15 120//15 118//15 117//15
f 117//16 118//16 114//16 113//16
f 115//17 119//17 117//17 113//17
f 120//18 116//18 114//18 118//18
f 121//13 122//13 124//13 123//13
f 123//14 124//14 128//14 127//14
f 127//15 128//15 126//15 125//15
f 125//16 126//16 122//16 121//16
f 123//17 127//17 125//17 121//17
f 128//18 124//18 122//18 126//18
f 129//13 130//13 132//13 131//13
f 131//14 132//14 136//14 135//14
f 135//15 136//15 134//15 133//15
f 133//16 134//16 130//16 129//16
f 131//17 135//17 133//17 129//17
f 136//18 132//18 130//18 134//18
f 137//13 138//13 140//13 139//13
f 139//14 140//14 144//14 143//14
f 143//15 144//15 142//15 141//15
f 141//16 142//16 138//16 137//16
f 139//17 143//17 141//17 137//17
f 144//18 140//18 138//18 142//18
f 145//13 146//13 148//13 147//13
f 147//14 148//14 152//14 151//14
f 151//15 152//15 150//15 149//15
f 149//16 150//16 146//16 145//16
f 147//17 151//17 149//17 145//17
f 152//18 148//18 146//18 150//18
f 153//13 154//13 156//13 155//13
f 155//14 156//14 160//14 159//14
f 159//15 160//15 158//15 157//15
f 157//16 158//16 154//16 153//16
f 155//17 159//17 157//17 153//17
f 160//18 156//18 154//18 158//18
f 161//13 162//13 164//13 163//13
f 163//14 164//14 168//14 167//14
f 167//15 168//15 166//15 165//15
f 165//16 166//16 162//16 161//16
f 163//17 167//17 165//17 161//17
f 168//18 164//18 162//18 166//18
f 169//13 170//13 172//13 171//13
f 171//14 172//14 176//14 175//14
f 175//15 176//15 174//15 173//15
f 173//16 174//16 170//16 169//16
f 171//17 175//17 173//17 169//17
f 176//18 172//18 170//18 174//18
f 177//13 178//13 180//13 179//13
f 179//14 180//14 184//14 183//14
f 183//15 184//15 182//15 181//15
f 181//16 182//16 178//16 177//16
f 179//17 183//17 181//17 177//17
f 184//18 180//18 178//18 182//18
f 185//15 187//15 188//15 186//15
f 187//14 191//14 192//14 188//14
f 191//13 189//13 190//13 192//13
f 189//16 185//16 186//16 190//16
f 187//17 185//17 189//17 191//17
f 192//18 190//18 186//18 188//18
f 193//15 195//15 196//15 194//15
f 195//14 199//14 200//14 196//14
f 199//13 197//13 198//13 200//13
f 197//16 193//16 194//16 198//16
f 195//17 193//17 197//17 199//17
f 200//18 198//18 194//18 196//18
f 201//15 203//15 204//15 202//15
f 203//14 207//14 208//14 204//14
f 207//13 205//13 206//13 208//13
f 205//16 201//16 202//16 206//16
f 203//17 201//17 205//17 207//17
f 208//18 206//18 202//18 204//18
f 209//15 211//15 212//15 210//15
f 211//14 215//14 216//14 212//14
f 215//13 213//13 214//13 216//13
f 213//16 209//16 210//16 214//16
f 211//17 209//17 213//17 215//17
f 216//18 214//18 210//18 212//18
f 217//15 219//15 220//15 218//15
f 219//14 223//14 224//14 220//14
f 223//13 221//13 222//13 224//13
f 221//16 217//16 218//16 222//16
f 219//17 217//17 221//17 223//17
f 224//18 222//18 218//18 220//18
f 225//15 227//15 228//15 226//15
f 227//14 231//14 232//14 228//14
f 231//13 229//13 230//13 232//13
f 229//16 225//16 226//16 230//16
f 227//17 225//17 229//17 231//17
f 232//18 230//18 226//18 228//18
f 233//15 235//15 236//15 234//15
f 235//14 239//14 240//14 236//14
f 239//13 237//13 238//13 240//13
f 237//16 233//16 234//16 238//16
f 235//17 233//17 237//17 239//17
f 240//18 238//18 234//18 236//18
f 241//15 243//15 244//15 242//15
f 243//14 247//14 248//14 244//14
f 247//13 245//13 246//13 248//13
f 245//16 241//16 242//16 246//16
f 243//17 241//17 245//17 247//17
f 248//18 246//18 242//18 244//18
f 249//15 251//15 252//15 250//15
f 251//14 255//14 256//14 252//14
f 255//13 253//13 254//13 256//13
f 253//16 249//16 250//16 254//16
f 251//17 249//17 253//17 255//17
f 256//18 254//18 250//18 252//18
f 257//15 259//15 260//15 258//15
f 259//14 263//14 264//14 260//14
f 263//13 261//13 262//13 264//13
f 261//16 257//16 258//16 262//16
f 259//17 257//17 261//17 263//17
f 264//18 262//18 258//18 260//18
o underWindow_B1-1_立方体.214
v 13.350000 3.375000 -20.174999
v 13.350000 4.125000 -20.174999
v 13.350000 3.375000 -19.875000
v 13.350000 4.125000 -19.875000
v 10.650000 3.375000 -20.174999
v 10.650001 4.125000 -20.174999
v 10.650001 3.375000 -19.875000
v 10.650000 4.125000 -19.875000
v 10.349999 3.375000 -20.174999
v 10.349999 4.125000 -20.174999
v 10.349999 3.375000 -19.875000
v 10.349999 4.125000 -19.875000
v 7.649999 3.375000 -20.174999
v 7.650000 4.125000 -20.174999
v 7.650000 3.375000 -19.875000
v 7.649999 4.125000 -19.875000
v 7.349999 3.375000 -20.174999
v 7.349999 4.125000 -20.174999
v 7.349999 3.375000 -19.875000
v 7.349999 4.125000 -19.875000
v 4.649998 3.375000 -20.174999
v 4.649999 4.125000 -20.174999
v 4.649999 3.375000 -19.875000
v 4.649998 4.125000 -19.875000
v 4.349998 3.375000 -20.174999
v 4.349998 4.125000 -20.174999
v 4.349998 3.375000 -19.875000
v 4.349998 4.125000 -19.875000
v 1.649998 3.375000 -20.174999
v 1.649999 4.125000 -20.174999
v 1.649999 3.375000 -19.875000
v 1.649998 4.125000 -19.875000
v -13.350000 3.375000 -20.174999
v -13.350000 4.125000 -20.174999
v -13.350000 3.375000 -19.875000
v -13.350000 4.125000 -19.875000
v -10.650000 3.375000 -20.174999
v -10.650002 4.125000 -20.174999
v -10.650002 3.375000 -19.875000
v -10.650000 4.125000 -19.875000
v -10.350000 3.375000 -20.174999
v -10.350000 4.125000 -20.174999
v -10.350000 3.375000 -19.875000
v -10.350000 4.125000 -19.875000
v -7.649998 3.375000 -20.174999
v -7.650000 4.125000 -20.174999
v -7.650000 3.375000 -19.875000
v -7.649998 4.125000 -19.875000
v -7.349998 3.375000 -20.174999
v -7.349998 4.125000 -20.174999
v -7.349998 3.375000 -19.875000
v -7.349998 4.125000 -19.875000
v -4.649998 3.375000 -20.174999
v -4.650000 4.125000 -20.174999
v -4.650000 3.375000 -19.875000
v -4.649998 4.125000 -19.875000
v -4.349998 3.375000 -20.174999
v -4.349998 4.125000 -20.174999
v -4.349998 3.375000 -19.875000
v -4.349998 4.125000 -19.875000
v -1.649998 3.375000 -20.174999
v -1.649999 4.125000 -20.174999
v -1.649999 3.375000 -19.875000
v -1.649998 4.125000 -19.875000
vn 0.0000 0.0000 -1.0000
vn 1.0000 0.0000 0.0000
vn 0.0000 1.0000 0.0000
vn 0.0000 -1.0000 -0.0000
vn 0.0000 0.0000 1.0000
vn -1.0000 0.0000 0.0000
s off
f 269//19 270//19 266//19 265//19
f 265//20 266//20 268//20 267//20
f 268//21 266//21 270//21 272//21
f 265//22 267//22 271//22 269//22
f 267//23 268//23 272//23 271//23
f 270//24 269//24 271//24 272//24
f 277//19 278//19 274//19 273//19
f 273//20 274//20 276//20 275//20
f 276//21 274//21 278//21 280//21
f 273//22 275//22 279//22 277//22
f 275//23 276//23 280//23 279//23
f 278//24 277//24 279//24 280//24
f 285//19 286//19 282//19 281//19
f 281//20 282//20 284//20 283//20
f 284//21 282//21 286//21 288//21
f 281//22 283//22 287//22 285//22
f 283//23 284//23 288//23 287//23
f 286//24 285//24 287//24 288//24
f 293//19 294//19 290//19 289//19
f 289//20 290//20 292//20 291//20
f 292//21 290//21 294//21 296//21
f 289//22 291//22 295//22 293//22
f 291//23 292//23 296//23 295//23
f 294//24 293//24 295//24 296//24
f 301//19 297//19 298//19 302//19
f 297//24 299//24 300//24 298//24
f 300//21 304//21 302//21 298//21
f 297//22 301//22 303//22 299//22
f 299//23 303//23 304//23 300//23
f 302//20 304//20 303//20 301//20
f 309//19 305//19 306//19 310//19
f 305//24 307//24 308//24 306//24
f 308//21 312//21 310//21 306//21
f 305//22 309//22 311//22 307//22
f 307//23 311//23 312//23 308//23
f 310//20 312//20 311//20 309//20
f 317//19 313//19 314//19 318//19
f 313//24 315//24 316//24 314//24
f 316//21 320//21 318//21 314//21
f 313//22 317//22 319//22 315//22
f 315//23 319//23 320//23 316//23
f 318//20 320//20 319//20 317//20
f 325//19 321//19 322//19 326//19
f 321//24 323//24 324//24 322//24
f 324//21 328//21 326//21 322//21
f 321//22 325//22 327//22 323//22
f 323//23 327//23 328//23 324//23
f 326//20 328//20 327//20 325//20
o underWindow_B1-2_立方体.030
v 13.350000 3.375000 -16.874998
v 13.350000 4.125000 -16.874998
v 13.350000 3.375000 -16.574999
v 13.350000 4.125000 -16.574999
v 10.650000 3.375000 -16.874998
v 10.650001 4.125000 -16.874998
v 10.650001 3.375000 -16.574999
v 10.650000 4.125000 -16.574999
v 10.349999 3.375000 -16.874998
v 10.349999 4.125000 -16.874998
v 10.349999 3.375000 -16.574999
v 10.349999 4.125000 -16.574999
v 7.649999 3.375000 -16.874998
v 7.650000 4.125000 -16.874998
v 7.650000 3.375000 -16.574999
v 7.649999 4.125000 -16.574999
v 7.349999 3.375000 -16.874998
v 7.349999 4.125000 -16.874998
v 7.349999 3.375000 -16.574999
v 7.349999 4.125000 -16.574999
v 4.649998 3.375000 -16.874998
v 4.649999 4.125000 -16.874998
v 4.649999 3.375000 -16.574999
v 4.649998 4.125000 -16.574999
v 4.349998 3.375000 -16.874998
v 4.349998 4.125000 -16.874998
v 4.349998 3.375000 -16.574999
v 4.349998 4.125000 -16.574999
v 1.649998 3.375000 -16.874998
v 1.649999 4.125000 -16.874998
v 1.649999 3.375000 -16.574999
v 1.649998 4.125000 -16.574999
v 1.349998 3.375000 -16.874998
v 1.349998 4.125000 -16.874998
v 1.349998 3.375000 -16.574999
v 1.349998 4.125000 -16.574999
v -1.350003 3.375000 -16.874998
v -1.350002 4.125000 -16.874998
v -1.350002 3.375000 -16.574999
v -1.350003 4.125000 -16.574999
v -1.650003 3.375000 -16.874998
v -1.650003 4.125000 -16.874998
v -1.650003 3.375000 -16.574999
v -1.650003 4.125000 -16.574999
v -4.350004 3.375000 -16.874998
v -4.350002 4.125000 -16.874998
v -4.350002 3.375000 -16.574999
v -4.350004 4.125000 -16.574999
v -4.650003 3.375000 -16.874998
v -4.650003 4.125000 -16.874998
v -4.650003 3.375000 -16.574999
v -4.650003 4.125000 -16.574999
v -7.350004 3.375000 -16.874998
v -7.350002 4.125000 -16.874998
v -7.350002 3.375000 -16.574999
v -7.350004 4.125000 -16.574999
v -7.650003 3.375000 -16.874998
v -7.650003 4.125000 -16.874998
v -7.650003 3.375000 -16.574999
v -7.650003 4.125000 -16.574999
v -10.350004 3.375000 -16.874998
v -10.350002 4.125000 -16.874998
v -10.350002 3.375000 -16.574999
v -10.350004 4.125000 -16.574999
v -10.650003 3.375000 -16.874998
v -10.650003 4.125000 -16.874998
v -10.650003 3.375000 -16.574999
v -10.650003 4.125000 -16.574999
v -13.350004 3.375000 -16.874998
v -13.350002 4.125000 -16.874998
v -13.350002 3.375000 -16.574999
v -13.350004 4.125000 -16.574999
vn 0.0000 0.0000 -1.0000
vn 1.0000 0.0000 0.0000
vn 0.0000 1.0000 0.0000
vn 0.0000 -1.0000 -0.0000
vn 0.0000 0.0000 1.0000
vn -1.0000 0.0000 0.0000
s off
f 333//25 334//25 330//25 329//25
f 329//26 330//26 332//26 331//26
f 332//27 330//27 334//27 336//27
f 329//28 331//28 335//28 333//28
f 331//29 332//29 336//29 335//29
f 334//30 333//30 335//30 336//30
f 341//25 342//25 338//25 337//25
f 337//26 338//26 340//26 339//26
f 340//27 338//27 342//27 344//27
f 337//28 339//28 343//28 341//28
f 339//29 340//29 344//29 343//29
f 342//30 341//30 343//30 344//30
f 349//25 350//25 346//25 345//25
f 345//26 346//26 348//26 347//26
f 348//27 346//27 350//27 352//27
f 345//28 347//28 351//28 349//28
f 347//29 348//29 352//29 351//29
f 350//30 349//30 351//30 352//30
f 357//25 358//25 354//25 353//25
f 353//26 354//26 356//26 355//26
f 356//27 354//27 358//27 360//27
f 353//28 355//28 359//28 357//28
f 355//29 356//29 360//29 359//29
f 358//30 357//30 359//30 360//30
f 365//25 366//25 362//25 361//25
f 361//26 362//26 364//26 363//26
f 364//27 362//27 366//27 368//27
f 361//28 363//28 367//28 365//28
f 363//29 364//29 368//29 367//29
f 366//30 365//30 367//30 368//30
f 373//25 374//25 370//25 369//25
f 369//26 370//26 372//26 371//26
f 372//27 370//27 374//27 376//27
f 369//28 371//28 375//28 373//28
f 371//29 372//29 376//29 375//29
f 374//30 373//30 375//30 376//30
f 381//25 382//25 378//25 377//25
f 377//26 378//26 380//26 379//26
f 380//27 378//27 382//27 384//27
f 377//28 379//28 383//28 381//28
f 379//29 380//29 384//29 383//29
f 382//30 381//30 383//30 384//30
f 389//25 390//25 386//25 385//25
f 385//26 386//26 388//26 387//26
f 388//27 386//27 390//27 392//27
f 385//28 387//28 391//28 389//28
f 387//29 388//29 392//29 391//29
f 390//30 389//30 391//30 392//30
f 397//25 398//25 394//25 393//25
f 393//26 394//26 396//26 395//26
f 396//27 394//27 398//27 400//27
f 393//28 395//28 399//28 397//28
f 395//29 396//29 400//29 399//29
f 398//30 397//30 399//30 400//30
