# Blender v2.93.0 OBJ File: '3dMap.blend'
# www.blender.org
o celling_normalCelling
v 13.500005 13.125000 -37.124939
v 13.500005 14.250000 -37.124939
v 23.999996 13.125000 -37.124939
v 23.999996 14.250000 -37.124939
v 13.500005 13.125000 37.124939
v 13.500005 14.250000 37.124939
v 23.999996 13.125000 37.124939
v 23.999996 14.250000 37.124939
v 14.250000 12.750000 -37.125000
v 14.250000 13.125000 -37.125000
v 16.125000 12.750000 -37.125000
v 16.125000 13.125000 -37.125000
v 14.250000 12.750000 37.125000
v 14.250000 13.125000 37.125000
v 16.125000 12.750000 37.125000
v 16.125000 13.125000 37.125000
v 16.125000 12.750000 21.000000
v 16.125000 13.125000 21.000000
v 14.250000 12.750000 21.000000
v 14.250000 13.125000 21.000000
v 16.125000 12.750000 15.750000
v 14.250000 13.125000 15.750000
v 16.125000 13.125000 15.750000
v 14.250000 12.750000 15.750000
v 16.125000 12.750000 -21.000000
v 14.250000 13.125000 -21.000000
v 16.125000 13.125000 -21.000000
v 14.250000 12.750000 -21.000000
v 16.125000 13.125000 -15.750000
v 14.250000 12.750000 -15.750000
v 16.125000 12.750000 -15.750000
v 14.250000 13.125000 -15.750000
v 18.750000 12.750000 -15.750000
v 18.750000 12.750000 -21.000000
v 18.750000 13.125000 -21.000000
v 18.750000 13.125000 -15.750000
v 18.750000 13.125000 15.750000
v 18.750000 13.125000 21.000000
v 18.750000 12.750000 21.000000
v 18.750000 12.750000 15.750000
vn 0.0000 0.0001 -1.0000
vn 1.0000 0.0000 0.0000
vn 0.0000 0.0001 1.0000
vn -1.0000 0.0000 0.0000
vn 0.0000 1.0000 0.0000
vn 0.0000 0.0000 -1.0000
vn 0.0000 0.0000 1.0000
vn 0.0000 -1.0000 0.0000
vn -0.0001 0.0000 -1.0000
vn -0.0001 0.0000 1.0000
s off
f 12//1 10//1 2//1
f 4//2 7//2 3//2
f 14//3 16//3 6//3
f 6//4 1//4 5//4
f 4//5 6//5 8//5
f 10//6 11//6 9//6
f 18//2 15//2 17//2
f 16//7 13//7 15//7
f 26//4 9//4 28//4
f 15//8 19//8 17//8
f 17//8 24//8 21//8
f 14//4 19//4 13//4
f 29//2 21//2 31//2
f 21//8 30//8 31//8
f 20//4 24//4 19//4
f 25//8 9//8 11//8
f 12//2 25//2 11//2
f 32//4 28//4 30//4
f 22//4 30//4 24//4
f 22//8 20//8 5//8
f 31//8 28//8 25//8
f 27//6 34//6 25//6
f 35//2 33//2 34//2
f 37//8 36//8 3//8
f 31//7 36//7 29//7
f 25//8 33//8 31//8
f 37//2 39//2 40//2
f 23//6 40//6 21//6
f 21//8 39//8 17//8
f 17//7 38//7 18//7
f 10//9 1//9 2//9
f 2//1 4//1 12//1
f 4//6 3//6 12//6
f 4//2 8//2 7//2
f 16//7 7//7 8//7
f 8//3 6//3 16//3
f 6//10 5//10 14//10
f 6//4 2//4 1//4
f 4//5 2//5 6//5
f 10//6 12//6 11//6
f 18//2 16//2 15//2
f 16//7 14//7 13//7
f 26//4 10//4 9//4
f 15//8 13//8 19//8
f 17//8 19//8 24//8
f 14//4 20//4 19//4
f 29//2 23//2 21//2
f 21//8 24//8 30//8
f 20//4 22//4 24//4
f 25//8 28//8 9//8
f 12//2 27//2 25//2
f 32//4 26//4 28//4
f 22//4 32//4 30//4
f 5//8 1//8 32//8
f 1//8 10//8 26//8
f 26//8 32//8 1//8
f 32//8 22//8 5//8
f 20//8 14//8 5//8
f 31//8 30//8 28//8
f 27//6 35//6 34//6
f 35//2 36//2 33//2
f 7//8 16//8 38//8
f 16//8 18//8 38//8
f 27//8 12//8 35//8
f 12//8 3//8 35//8
f 3//8 7//8 37//8
f 7//8 38//8 37//8
f 37//8 23//8 29//8
f 36//8 35//8 3//8
f 37//8 29//8 36//8
f 31//7 33//7 36//7
f 25//8 34//8 33//8
f 37//2 38//2 39//2
f 23//6 37//6 40//6
f 21//8 40//8 39//8
f 17//7 39//7 38//7
