# Blender v2.93.0 OBJ File: '3dMap.blend'
# www.blender.org
o celling_立方体.208
v 13.500005 13.125000 -37.124939
v 13.500005 14.250000 -37.124939
v 23.999996 13.125000 -37.124939
v 23.999996 14.250000 -37.124939
v 13.500005 13.125000 37.124939
v 13.500005 14.250000 37.124939
v 23.999996 13.125000 37.124939
v 23.999996 14.250000 37.124939
vn 0.0000 0.0000 -1.0000
vn 1.0000 0.0000 0.0000
vn 0.0000 0.0000 1.0000
vn -1.0000 0.0000 0.0000
vn 0.0000 -1.0000 0.0000
vn 0.0000 1.0000 0.0000
s off
f 1//1 2//1 4//1 3//1
f 3//2 4//2 8//2 7//2
f 7//3 8//3 6//3 5//3
f 5//4 6//4 2//4 1//4
f 3//5 7//5 5//5 1//5
f 8//6 4//6 2//6 6//6
o under_5F_立方体.014
v 14.250000 12.750000 -37.125000
v 14.250000 13.125000 -37.125000
v 16.125000 12.750000 -37.125000
v 16.125000 13.125000 -37.125000
v 14.250000 12.750000 37.125000
v 14.250000 13.125000 37.125000
v 16.125000 12.750000 37.125000
v 16.125000 13.125000 37.125000
v 16.125000 12.750000 21.000000
v 16.125000 13.125000 21.000000
v 14.250000 12.750000 21.000000
v 14.250000 13.125000 21.000000
v 16.125000 12.750000 15.750000
v 14.250000 13.125000 15.750000
v 16.125000 13.125000 15.750000
v 14.250000 12.750000 15.750000
v 16.125000 12.750000 -21.000000
v 14.250000 13.125000 -21.000000
v 16.125000 13.125000 -21.000000
v 14.250000 12.750000 -21.000000
v 16.125000 13.125000 -15.750000
v 14.250000 12.750000 -15.750000
v 16.125000 12.750000 -15.750000
v 14.250000 13.125000 -15.750000
v 18.750000 12.750000 -15.750000
v 18.750000 12.750000 -21.000000
v 18.750000 13.125000 -21.000000
v 18.750000 13.125000 -15.750000
v 18.750000 13.125000 15.750000
v 18.750000 13.125000 21.000000
v 18.750000 12.750000 21.000000
v 18.750000 12.750000 15.750000
vn 0.0000 0.0000 -1.0000
vn 1.0000 0.0000 0.0000
vn 0.0000 0.0000 1.0000
vn -1.0000 0.0000 0.0000
vn 0.0000 -1.0000 0.0000
vn 0.0000 1.0000 0.0000
s off
f 9//7 10//7 12//7 11//7
f 17//8 18//8 16//8 15//8
f 15//9 16//9 14//9 13//9
f 28//10 26//10 10//10 9//10
f 17//11 15//11 13//11 19//11
f 27//12 12//12 10//12 26//12
f 16//12 18//12 20//12 14//12
f 21//11 17//11 19//11 24//11
f 13//10 14//10 20//10 19//10
f 23//12 18//12 38//12 37//12
f 31//8 29//8 23//8 21//8
f 31//11 21//11 24//11 30//11
f 18//12 23//12 22//12 20//12
f 19//10 20//10 22//10 24//10
f 11//11 25//11 28//11 9//11
f 11//8 12//8 27//8 25//8
f 29//12 27//12 26//12 32//12
f 30//10 32//10 26//10 28//10
f 24//10 22//10 32//10 30//10
f 23//12 29//12 32//12 22//12
f 25//11 31//11 30//11 28//11
f 25//7 27//7 35//7 34//7
f 34//8 35//8 36//8 33//8
f 27//12 29//12 36//12 35//12
f 29//9 31//9 33//9 36//9
f 31//11 25//11 34//11 33//11
f 40//8 37//8 38//8 39//8
f 21//7 23//7 37//7 40//7
f 17//11 21//11 40//11 39//11
f 18//9 17//9 39//9 38//9
