# Blender v2.93.0 OBJ File: '3dMap.blend'
# www.blender.org
o floor_C_3F_立方体.113
v -75.375000 6.375000 -34.500000
v -75.375000 6.750000 -34.500000
v -41.325005 6.375000 -34.500000
v -41.325005 6.750000 -34.500000
v -75.375000 6.375000 -19.875000
v -75.375000 6.750000 -19.875000
v -41.325005 6.375000 -15.125000
v -41.325005 6.750000 -15.125000
v -59.249996 6.750000 -19.875000
v -59.249996 6.375000 -15.125000
v -59.249996 6.750000 -15.125000
v -59.249996 6.375000 -19.875000
v -41.325005 6.375000 -21.000000
v -41.325005 6.750000 -21.000000
v -37.875000 6.750000 -34.500000
v -37.875000 6.375000 -34.500000
v -37.875000 6.375000 -21.000000
v -37.875000 6.750000 -21.000000
v -66.750000 6.750000 -19.875000
v -66.750000 6.375000 -19.875000
v -59.249996 6.750000 -16.900000
v -59.249996 6.375000 -16.900000
v -66.000000 6.375000 -19.875000
v -66.000000 6.750000 -19.875000
v -66.000000 6.375000 -16.875000
v -66.000000 6.750000 -16.875000
v -66.750000 6.750000 -15.125000
v -66.750000 6.375000 -15.125000
vn -1.0000 0.0000 0.0000
vn 1.0000 0.0000 0.0000
vn 0.0000 0.0000 -1.0000
vn 0.0000 -1.0000 -0.0000
vn 0.0000 0.0000 1.0000
vn 0.0000 1.0000 -0.0000
vn -0.0037 0.0000 -1.0000
s off
f 22//1 21//1 9//1 12//1
f 13//2 14//2 8//2 7//2
f 5//1 6//1 2//1 1//1
f 1//3 2//3 4//3 3//3
f 3//4 13//4 7//4 10//4 22//4 12//4 23//4 20//4 5//4 1//4
f 20//5 19//5 6//5 5//5
f 7//5 8//5 11//5 10//5
f 8//6 14//6 4//6 2//6 6//6 19//6 24//6 9//6 21//6 11//6
f 13//4 3//4 16//4 17//4
f 16//2 15//2 18//2 17//2
f 14//5 13//5 17//5 18//5
f 3//3 4//3 15//3 16//3
f 4//6 14//6 18//6 15//6
f 22//7 25//7 26//7 21//7
f 23//2 24//2 26//2 25//2
f 12//5 9//5 24//5 23//5
f 19//1 20//1 28//1 27//1
f 10//5 11//5 27//5 28//5
f 11//6 21//6 26//6 27//6
f 10//4 28//4 25//4 22//4
f 20//4 23//4 25//4 28//4
f 19//6 27//6 26//6 24//6
o pillar_C_3F_立方体.123
v -38.625000 6.750000 -34.499954
v -38.625000 9.750000 -34.499954
v -37.875000 6.750000 -34.499954
v -37.875000 9.750000 -34.499954
v -38.625000 6.750000 -33.749954
v -38.625000 9.750000 -33.749954
v -37.875000 6.750000 -33.749954
v -37.875000 9.750000 -33.749954
v -43.875000 6.750000 -34.499954
v -43.875000 9.750000 -34.499954
v -43.125000 6.750000 -34.499954
v -43.125000 9.750000 -34.499954
v -43.875000 6.750000 -33.749954
v -43.875000 9.750000 -33.749954
v -43.125000 6.750000 -33.749954
v -43.125000 9.750000 -33.749954
v -49.125000 6.750000 -34.499954
v -49.125000 9.750000 -34.499954
v -48.375000 6.750000 -34.499954
v -48.375000 9.750000 -34.499954
v -49.125000 6.750000 -33.749954
v -49.125000 9.750000 -33.749954
v -48.375000 6.750000 -33.749954
v -48.375000 9.750000 -33.749954
v -54.375000 6.750000 -34.499954
v -54.375000 9.750000 -34.499954
v -53.625000 6.750000 -34.499954
v -53.625000 9.750000 -34.499954
v -54.375000 6.750000 -33.749954
v -54.375000 9.750000 -33.749954
v -53.625000 6.750000 -33.749954
v -53.625000 9.750000 -33.749954
v -59.625000 6.750000 -34.499954
v -59.625000 9.750000 -34.499954
v -58.875000 6.750000 -34.499954
v -58.875000 9.750000 -34.499954
v -59.625000 6.750000 -33.749954
v -59.625000 9.750000 -33.749954
v -58.875000 6.750000 -33.749954
v -58.875000 9.750000 -33.749954
v -64.875000 6.750000 -34.499954
v -64.875000 9.750000 -34.499954
v -64.125000 6.750000 -34.499954
v -64.125000 9.750000 -34.499954
v -64.875000 6.750000 -33.749954
v -64.875000 9.750000 -33.749954
v -64.125000 6.750000 -33.749954
v -64.125000 9.750000 -33.749954
v -70.125000 6.750000 -34.499954
v -70.125000 9.750000 -34.499954
v -69.375000 6.750000 -34.499954
v -69.375000 9.750000 -34.499954
v -70.125000 6.750000 -33.749954
v -70.125000 9.750000 -33.749954
v -69.375000 6.750000 -33.749954
v -69.375000 9.750000 -33.749954
v -75.375000 6.750000 -34.499954
v -75.375000 9.750000 -34.499954
v -74.625000 6.750000 -34.499954
v -74.625000 9.750000 -34.499954
v -75.375000 6.750000 -33.749954
v -75.375000 9.750000 -33.749954
v -74.625000 6.750000 -33.749954
v -74.625000 9.750000 -33.749954
vn 0.0000 0.0000 -1.0000
vn 1.0000 0.0000 0.0000
vn 0.0000 0.0000 1.0000
vn -1.0000 0.0000 0.0000
vn 0.0000 -1.0000 0.0000
vn 0.0000 1.0000 0.0000
s off
f 29//8 30//8 32//8 31//8
f 31//9 32//9 36//9 35//9
f 35//10 36//10 34//10 33//10
f 33//11 34//11 30//11 29//11
f 31//12 35//12 33//12 29//12
f 36//13 32//13 30//13 34//13
f 37//8 38//8 40//8 39//8
f 39//9 40//9 44//9 43//9
f 43//10 44//10 42//10 41//10
f 41//11 42//11 38//11 37//11
f 39//12 43//12 41//12 37//12
f 44//13 40//13 38//13 42//13
f 45//8 46//8 48//8 47//8
f 47//9 48//9 52//9 51//9
f 51//10 52//10 50//10 49//10
f 49//11 50//11 46//11 45//11
f 47//12 51//12 49//12 45//12
f 52//13 48//13 46//13 50//13
f 53//8 54//8 56//8 55//8
f 55//9 56//9 60//9 59//9
f 59//10 60//10 58//10 57//10
f 57//11 58//11 54//11 53//11
f 55//12 59//12 57//12 53//12
f 60//13 56//13 54//13 58//13
f 61//8 62//8 64//8 63//8
f 63//9 64//9 68//9 67//9
f 67//10 68//10 66//10 65//10
f 65//11 66//11 62//11 61//11
f 63//12 67//12 65//12 61//12
f 68//13 64//13 62//13 66//13
f 69//8 70//8 72//8 71//8
f 71//9 72//9 76//9 75//9
f 75//10 76//10 74//10 73//10
f 73//11 74//11 70//11 69//11
f 71//12 75//12 73//12 69//12
f 76//13 72//13 70//13 74//13
f 77//8 78//8 80//8 79//8
f 79//9 80//9 84//9 83//9
f 83//10 84//10 82//10 81//10
f 81//11 82//11 78//11 77//11
f 79//12 83//12 81//12 77//12
f 84//13 80//13 78//13 82//13
f 85//8 86//8 88//8 87//8
f 87//9 88//9 92//9 91//9
f 91//10 92//10 90//10 89//10
f 89//11 90//11 86//11 85//11
f 87//12 91//12 89//12 85//12
f 92//13 88//13 86//13 90//13
o Str_C_3F_立方体.090
v -61.425003 6.750000 -16.875002
v -61.350002 6.562500 -16.875002
v -64.350006 8.250000 -16.875002
v -64.350006 8.250000 -18.450001
v -61.724998 7.087500 -18.299995
v -62.025002 7.256250 -18.299995
v -62.025002 7.087500 -18.299995
v -62.325005 7.256250 -18.299995
v -62.025002 7.256250 -16.875002
v -62.325005 7.256250 -16.875002
v -62.025002 7.087500 -16.875002
v -61.724998 7.087500 -16.875002
v -61.725010 6.918750 -16.875002
v -62.925003 7.593750 -16.875002
v -63.225002 7.762500 -16.875002
v -62.925003 7.762500 -16.875002
v -63.225002 7.931250 -16.875002
v -63.225002 7.762500 -18.299995
v -63.225002 7.931250 -18.299995
v -62.925003 7.762500 -18.299995
v -62.925003 7.593750 -18.299995
v -62.625000 7.593750 -18.299995
v -63.750000 8.250000 -18.450003
v -63.525002 8.099999 -18.300043
v -63.525002 7.931250 -18.300043
v -63.825005 8.099999 -18.299995
v -63.525002 8.099999 -16.875050
v -63.825005 8.099999 -16.875002
v -63.525002 7.931250 -16.875050
v -63.825005 8.268750 -16.875002
v -64.125000 8.268750 -16.875002
v -63.825005 8.268750 -18.299995
v -64.125793 8.268750 -18.299995
v -64.125000 8.437500 -18.299994
v -64.125000 8.437500 -16.875002
v -64.125000 8.437500 -18.450001
v -62.325005 7.425000 -18.299995
v -62.625000 7.425000 -18.299995
v -62.325005 7.425000 -16.875002
v -62.625000 7.425000 -16.875002
v -62.625000 7.593750 -16.875002
v -61.425003 6.918750 -16.875002
v -61.725010 6.918750 -18.299995
v -61.425003 6.918750 -18.299995
v -61.425003 6.750000 -18.299995
v -59.250000 6.750000 -16.875002
v -59.250000 6.750000 -18.299997
v -59.250000 6.562500 -16.875002
v -61.125000 6.750000 -16.875002
v -61.125000 6.749479 -18.300001
v -64.125000 5.062500 -18.450001
v -64.125107 5.812500 -18.450001
v -64.125153 5.562500 -18.299994
v -64.125107 5.812500 -18.350000
v -62.175003 6.925000 -18.450001
v -62.175003 7.026600 -18.450001
v -62.175003 6.925000 -18.350000
v -62.175003 6.675000 -18.300001
v -62.175003 7.026600 -18.350000
v -61.862469 6.850800 -18.300001
v -61.418022 6.600800 -18.300001
v -62.084690 6.975800 -18.350000
v -60.974899 6.750000 -18.449999
v -60.974899 6.750000 -18.299992
v -60.974792 7.500000 -18.299992
v -60.974747 7.250000 -18.449999
v -60.974792 7.500000 -18.399992
v -62.924934 8.612500 -18.299992
v -62.924934 8.714100 -18.299992
v -62.924934 8.612500 -18.399992
v -62.924934 8.362500 -18.449991
v -62.924934 7.862500 -18.449991
v -62.924934 8.714100 -18.399992
v -63.237469 8.538300 -18.449991
v -63.681915 8.288300 -18.449991
v -63.015247 8.663300 -18.399992
v -59.250000 6.750000 -19.875002
v -66.000000 5.062500 -18.375002
v -59.250000 6.750000 -18.450001
v -64.125000 5.062500 -16.875002
v -66.000000 5.062500 -16.875002
v -66.000000 5.062500 -19.875002
v -63.825005 5.062500 -19.875002
v -63.825005 5.231250 -19.875002
v -63.825005 5.062500 -18.450001
v -63.825005 5.231250 -18.450001
v -63.525002 5.231251 -18.450001
v -63.525002 5.400000 -18.450001
v -62.925003 5.568750 -19.875002
v -62.625000 5.737500 -19.875002
v -62.925003 5.737500 -19.875002
v -62.625000 5.906250 -19.875002
v -62.625000 5.737500 -18.450001
v -62.625000 5.906250 -18.450001
v -62.925003 5.737500 -18.450001
v -62.925003 5.568750 -18.450001
v -63.225002 5.568775 -18.450001
v -62.325005 6.075000 -18.450001
v -62.025002 6.075000 -18.450001
v -62.325005 5.906250 -18.450001
v -62.325005 6.075000 -19.875002
v -62.025002 6.075000 -19.875002
v -62.325005 5.906250 -19.875002
v -62.025002 6.243750 -19.875002
v -61.725002 6.243750 -19.875002
v -62.025002 6.243750 -18.450001
v -61.725002 6.243700 -18.450001
v -61.725002 6.412500 -18.450001
v -61.425003 6.581300 -18.450001
v -61.125000 6.581300 -18.450001
v -61.425003 6.412500 -18.450001
v -61.425003 6.581300 -19.875002
v -61.125000 6.581300 -19.875002
v -61.425003 6.412500 -19.875002
v -61.725002 6.412500 -19.875002
v -61.125000 6.750000 -19.875002
v -61.125000 6.750000 -18.450001
v -63.225002 5.400024 -18.450001
v -63.225002 5.568775 -19.875002
v -63.225002 5.400024 -19.875002
v -63.525002 5.400000 -19.875002
v -63.525002 5.231251 -19.875002
v -59.250000 6.562500 -19.875002
v -64.125000 4.830000 -16.875002
v -59.250000 6.562500 -18.299999
v -66.000000 4.875000 -18.375002
v -63.750000 4.875000 -18.299999
v -66.000000 4.875000 -16.875002
v -63.750000 4.875000 -19.875002
v -66.000000 4.875000 -19.875002
v -60.750000 6.562500 -19.875002
v -64.125000 5.062500 -18.299994
v -60.750000 6.562500 -18.299999
v -62.175003 6.175000 -18.300001
v -61.350002 6.562500 -18.299999
v -64.125000 4.830000 -18.299999
v -63.750000 4.830000 -19.875002
v -63.750000 4.830000 -18.299999
v -64.350006 8.437500 -16.875002
v -64.350006 8.437500 -18.450001
v -63.749935 8.250000 -18.299992
vn 1.0000 0.0000 0.0000
vn 0.0000 1.0000 0.0000
vn 1.0000 -0.0023 -0.0003
vn -0.0001 1.0000 -0.0000
vn 1.0000 -0.0001 0.0000
vn 0.0009 1.0000 -0.0002
vn -1.0000 -0.0002 -0.0003
vn -0.4955 0.8686 0.0000
vn -0.1112 0.1949 0.9745
vn 0.0000 0.0000 1.0000
vn -1.0000 0.0000 0.0000
vn -0.1096 0.1949 0.9747
vn 1.0000 -0.0002 0.0003
vn 0.4955 0.8686 0.0000
vn 0.1112 0.1949 -0.9745
vn -0.0000 0.0000 -1.0000
vn 0.1096 0.1949 -0.9747
vn 0.0001 1.0000 0.0000
vn 0.4903 -0.8716 0.0000
vn 0.0000 -1.0000 0.0000
vn -0.4903 -0.8716 -0.0000
vn -0.0217 -0.9998 -0.0014
vn -0.4903 0.8716 0.0001
vn 0.4472 0.8944 -0.0001
s off
f 103//14 99//14 98//14 101//14
f 101//15 98//15 100//15 102//15
f 104//15 97//15 99//15 103//15
f 108//15 112//15 110//15 107//15
f 107//14 110//14 111//14 109//14
f 106//14 113//14 112//14 108//14
f 121//14 117//14 116//14 119//14
f 119//15 116//15 118//15 120//15
f 109//15 111//15 117//15 121//15
f 118//14 124//14 122//14 120//14
f 124//15 125//15 123//15 122//15
f 125//16 126//16 127//16 123//16
f 156//17 142//17 141//17 138//17 139//17
f 102//14 100//14 129//14 131//14
f 131//15 129//15 130//15 132//15
f 132//14 130//14 114//14 133//14
f 133//15 114//15 113//15 106//15
f 134//15 136//15 135//15 105//15
f 105//18 135//18 97//18 104//18
f 134//14 93//14 137//14 136//14
f 139//14 138//14 140//14 217//14
f 137//19 93//19 141//19 142//19
f 144//20 143//20 224//20 145//20 146//20
f 146//21 149//21 147//21 144//21
f 150//22 149//22 146//22 145//22
f 224//23 226//23 150//23 145//23
f 149//24 151//24 148//24 147//24
f 149//23 154//23 151//23
f 149//25 150//25 152//25 154//25
f 150//23 226//23 153//23 152//23
f 157//26 156//26 155//26 158//26 159//26
f 159//27 162//27 160//27 157//27
f 163//28 162//28 159//28 158//28
f 155//29 164//29 163//29 158//29
f 162//14 165//14 161//14 160//14
f 162//29 168//29 165//29
f 162//30 163//30 166//30 168//30
f 163//29 164//29 167//29 166//29
f 170//15 173//15 172//15 224//15 143//15 177//15 175//15 174//15
f 175//24 177//24 178//24 176//24
f 176//15 178//15 179//15 214//15
f 183//15 187//15 185//15 182//15
f 182//24 185//24 186//24 184//24
f 181//24 188//24 187//24 183//24
f 193//15 190//15 191//15 194//15
f 195//24 192//24 190//24 193//24
f 184//15 186//15 192//15 195//15
f 194//24 191//24 198//24 196//24
f 196//31 198//31 199//31 197//31
f 209//24 208//24 205//24 202//24
f 206//24 203//24 201//24 204//24
f 207//15 200//15 203//15 206//15
f 197//24 199//24 200//24 207//24
f 139//15 171//15 155//15 156//15
f 212//24 210//24 189//24 211//24
f 211//31 189//31 188//31 181//31
f 213//17 180//17 210//17 212//17
f 214//24 179//24 180//24 213//24
f 202//15 205//15 204//15 201//15
f 221//32 223//32 225//32 219//32
f 225//33 223//33 215//33 217//33
f 99//23 97//23 135//23 136//23 137//23 142//23 156//23 157//23 160//23 161//23 233//23 126//23 125//23 124//23 118//23 116//23 117//23 111//23 110//23 112//23 113//23 114//23 130//23 129//23 100//23 98//23
f 155//15 171//15 169//15 208//15 209//15
f 169//14 171//14 139//14 217//14 215//14
f 170//24 174//24 222//24 218//24 220//24 173//24
f 175//29 176//29 214//29 213//29 212//29 211//29 181//29 183//29 182//29 184//29 195//29 193//29 194//29 196//29 197//29 207//29 206//29 204//29 205//29 208//29 169//29 215//29 223//29 221//29 229//29 222//29 174//29
f 102//23 131//23 132//23 133//23 106//23 108//23 107//23 109//23 121//23 119//23 120//23 122//23 123//23 127//23 231//23 95//23 94//23 140//23 138//23 141//23 93//23 134//23 105//23 104//23 103//23 101//23
f 227//33 225//33 217//33 140//33 94//33
f 96//24 95//24 231//24 232//24
f 226//23 224//23 228//23 230//23 219//23 225//23 227//23 153//23
f 227//34 94//34 95//34 96//34 148//34 151//34 154//34 152//34 153//34
f 221//14 219//14 230//14 229//14
f 216//35 220//35 222//35 229//35 230//35 228//35
f 127//15 126//15 128//15 232//15 231//15
f 161//36 165//36 168//36 166//36 167//36 115//36 233//36
f 126//37 233//37 115//37 128//37
f 115//29 167//29 164//29 155//29 209//29 202//29 201//29 203//29 200//29 199//29 198//29 191//29 190//29 192//29 186//29 185//29 187//29 188//29 189//29 210//29 180//29 179//29 178//29 177//29 143//29 144//29 147//29 148//29 96//29 232//29 128//29
f 172//23 173//23 220//23 216//23
f 224//14 172//14 216//14 228//14
o wall_C_3F_立方体.168
v -41.325001 6.750000 -15.125000
v -41.325001 9.750000 -15.125000
v -75.375000 6.750000 -32.250000
v -66.750000 6.750000 -16.875000
v -66.750000 6.750000 -15.125000
v -66.750000 9.750000 -15.125000
v -66.750000 9.750000 -16.875000
v -75.375000 9.750000 -32.250000
v -75.375000 9.750000 -19.875000
v -75.375000 6.750000 -19.875000
v -59.249996 9.750000 -19.875000
v -59.249802 6.750000 -19.875000
v -66.000000 6.750000 -16.875000
v -66.000000 6.750000 -15.125000
v -66.000000 9.750000 -16.875000
v -66.000000 9.750000 -15.125000
v -66.750000 9.750000 -19.875000
v -65.999992 9.750000 -19.875000
v -66.750000 6.750000 -19.875000
v -66.000000 6.750000 -19.875000
v -41.325001 6.750000 -21.000000
v -41.325001 9.750000 -21.000000
v -59.249802 6.750000 -15.125000
v -59.249802 9.750000 -15.125000
v -59.249802 6.750000 -16.900000
v -59.249802 9.750000 -16.900000
v -37.875000 6.750000 -21.000000
v -37.875000 9.750000 -21.000000
v -37.875000 6.750000 -32.250000
v -37.875000 9.750000 -32.250000
v -38.625000 6.750000 -32.250000
v -38.625000 9.750000 -32.250000
v -37.875000 6.749999 -33.750000
v -37.875000 9.749999 -33.750000
v -38.625000 6.749999 -33.750000
v -38.624996 9.749999 -33.750000
v -74.625000 6.750000 -32.250000
v -74.625000 9.750000 -32.250000
v -75.375000 6.749999 -33.750000
v -75.375000 9.749999 -33.750000
v -74.625000 6.749999 -33.750000
v -74.625000 9.749999 -33.750000
vn 0.0000 1.0000 0.0000
vn -0.0037 0.0000 -1.0000
vn 0.0000 0.0000 1.0000
vn -0.0000 -1.0000 0.0000
vn -1.0000 0.0000 0.0000
vn 1.0000 0.0000 0.0000
vn 0.0000 0.0000 -1.0000
s off
f 248//38 251//38 250//38 240//38
f 259//39 258//39 246//39 248//39
f 235//40 257//40 256//40 234//40
f 254//41 234//41 256//41 258//41 245//41 253//41 252//41 243//41 236//41 270//41 264//41 262//41 260//41
f 250//42 252//42 237//42 240//42
f 239//38 249//38 248//38 240//38
f 238//42 239//42 240//42 237//42
f 242//40 243//40 252//40 250//40
f 253//43 251//43 248//43 246//43
f 251//40 253//40 245//40 244//40
f 256//40 257//40 249//40 247//40
f 237//41 246//41 247//41 238//41
f 247//40 249//40 239//40 238//40
f 257//38 259//38 248//38 249//38
f 246//41 237//41 252//41 253//41
f 236//42 243//42 242//42 241//42
f 254//43 255//43 235//43 234//43
f 244//42 245//42 258//42 259//42
f 260//43 262//43 263//43 261//43
f 235//38 255//38 261//38 263//38 265//38 271//38 241//38 242//38 250//38 251//38 244//38 259//38 257//38
f 256//41 247//41 246//41 258//41
f 255//40 254//40 260//40 261//40
f 241//38 271//38 275//38 273//38
f 264//42 265//42 269//42 268//42
f 267//44 266//44 268//44 269//44
f 265//38 263//38 267//38 269//38
f 262//41 264//41 268//41 266//41
f 263//43 262//43 266//43 267//43
f 265//44 264//44 270//44 271//44
f 275//44 274//44 272//44 273//44
f 236//42 241//42 273//42 272//42
f 271//43 270//43 274//43 275//43
f 270//41 236//41 272//41 274//41
o ceiling_C_立方体.203
v -75.375000 9.750000 -34.500000
v -75.375000 10.125000 -34.500000
v -41.325005 9.750000 -34.500000
v -41.325005 10.125000 -34.500000
v -75.375000 9.750000 -19.875000
v -75.375000 10.125000 -19.875000
v -41.325005 9.750000 -15.125000
v -41.325005 10.125000 -15.125000
v -59.249996 9.750000 -15.125000
v -59.249996 10.125000 -15.125000
v -41.325005 9.750000 -21.000000
v -41.325005 10.125000 -21.000000
v -37.875000 10.125000 -34.500000
v -37.875000 9.750000 -34.500000
v -37.875000 9.750000 -21.000000
v -37.875000 10.125000 -21.000000
v -66.750000 10.125000 -19.875000
v -66.750000 9.750000 -19.875000
v -66.750000 10.125000 -15.125000
v -66.750000 9.750000 -15.125000
vn 1.0000 0.0000 0.0000
vn -1.0000 0.0000 0.0000
vn 0.0000 0.0000 -1.0000
vn 0.0000 0.0000 1.0000
vn 0.0000 -1.0000 0.0000
vn 0.0000 1.0000 0.0000
s off
f 286//45 287//45 283//45 282//45
f 280//46 281//46 277//46 276//46
f 276//47 277//47 279//47 278//47
f 293//48 292//48 281//48 280//48
f 282//48 283//48 285//48 284//48
f 286//49 278//49 289//49 290//49
f 289//45 288//45 291//45 290//45
f 287//48 286//48 290//48 291//48
f 278//47 279//47 288//47 289//47
f 279//50 287//50 291//50 288//50
f 292//46 293//46 295//46 294//46
f 284//48 285//48 294//48 295//48
f 278//49 286//49 282//49 284//49 295//49 293//49 280//49 276//49
f 283//50 287//50 279//50 277//50 281//50 292//50 294//50 285//50
