# Blender v2.93.0 OBJ File: '3dMap.blend'
# www.blender.org
o floor_B1_立方体.085
v -13.500000 3.187500 -20.174999
v -13.500000 3.375000 -20.174999
v 13.500000 3.187500 -20.174999
v 13.500000 3.375000 -20.174999
v -13.500000 3.187500 -16.575001
v -13.500000 3.375000 -16.575001
v 13.500000 3.187500 -16.575001
v 13.500000 3.375000 -16.575001
vn 0.0000 0.0000 -1.0000
vn 1.0000 0.0000 0.0000
vn 0.0000 0.0000 1.0000
vn -1.0000 0.0000 0.0000
vn 0.0000 -1.0000 0.0000
vn 0.0000 1.0000 0.0000
s off
f 1//1 2//1 4//1 3//1
f 3//2 4//2 8//2 7//2
f 7//3 8//3 6//3 5//3
f 5//4 6//4 2//4 1//4
f 3//5 7//5 5//5 1//5
f 8//6 4//6 2//6 6//6
o pillar_B1_立方体.089
v 13.350000 3.375000 -20.174999
v 13.350000 6.187500 -20.174999
v 13.650000 3.375000 -20.174999
v 13.650000 6.187500 -20.174999
v 13.350000 3.375000 -19.875000
v 13.350000 6.187500 -19.875000
v 13.650000 3.375000 -19.875000
v 13.650000 6.187500 -19.875000
v 10.350000 3.375000 -20.174999
v 10.350000 6.187500 -20.174999
v 10.650000 3.375000 -20.174999
v 10.650000 6.187500 -20.174999
v 10.350000 3.375000 -19.875000
v 10.350000 6.187500 -19.875000
v 10.650000 3.375000 -19.875000
v 10.650000 6.187500 -19.875000
v 7.350000 3.375000 -20.174999
v 7.350000 6.187500 -20.174999
v 7.650000 3.375000 -20.174999
v 7.650000 6.187500 -20.174999
v 7.350000 3.375000 -19.875000
v 7.350000 6.187500 -19.875000
v 7.650000 3.375000 -19.875000
v 7.650000 6.187500 -19.875000
v 4.350000 3.375000 -20.174999
v 4.350000 6.187500 -20.174999
v 4.650000 3.375000 -20.174999
v 4.650000 6.187500 -20.174999
v 4.350000 3.375000 -19.875000
v 4.350000 6.187500 -19.875000
v 4.650000 3.375000 -19.875000
v 4.650000 6.187500 -19.875000
v 1.350000 3.375000 -20.174999
v 1.350000 6.187500 -20.174999
v 1.650000 3.375000 -20.174999
v 1.650000 6.187500 -20.174999
v 1.350000 3.375000 -19.875000
v 1.350000 6.187500 -19.875000
v 1.650000 3.375000 -19.875000
v 1.650000 6.187500 -19.875000
v -1.650000 3.375000 -20.174999
v -1.650000 6.187500 -20.174999
v -1.350000 3.375000 -20.174999
v -1.350000 6.187500 -20.174999
v -1.650000 3.375000 -19.875000
v -1.650000 6.187500 -19.875000
v -1.350000 3.375000 -19.875000
v -1.350000 6.187500 -19.875000
v -4.650000 3.375000 -20.174999
v -4.650000 6.187500 -20.174999
v -4.350000 3.375000 -20.174999
v -4.350000 6.187500 -20.174999
v -4.650000 3.375000 -19.875000
v -4.650000 6.187500 -19.875000
v -4.350000 3.375000 -19.875000
v -4.350000 6.187500 -19.875000
v -7.650000 3.375000 -20.174999
v -7.650000 6.187500 -20.174999
v -7.350000 3.375000 -20.174999
v -7.350000 6.187500 -20.174999
v -7.650000 3.375000 -19.875000
v -7.650000 6.187500 -19.875000
v -7.350000 3.375000 -19.875000
v -7.350000 6.187500 -19.875000
v -10.650000 3.375000 -20.174999
v -10.650000 6.187500 -20.174999
v -10.350000 3.375000 -20.174999
v -10.350000 6.187500 -20.174999
v -10.650000 3.375000 -19.875000
v -10.650000 6.187500 -19.875000
v -10.350000 3.375000 -19.875000
v -10.350000 6.187500 -19.875000
v -13.650000 3.375000 -20.174999
v -13.650000 6.187500 -20.174999
v -13.350000 3.375000 -20.174999
v -13.350000 6.187500 -20.174999
v -13.650000 3.375000 -19.875000
v -13.650000 6.187500 -19.875000
v -13.350000 3.375000 -19.875000
v -13.350000 6.187500 -19.875000
v 13.350000 3.375000 -16.575001
v 13.350000 6.187500 -16.575001
v 13.650000 3.375000 -16.575001
v 13.650000 6.187500 -16.575001
v 13.350000 3.375000 -16.875000
v 13.350000 6.187500 -16.875000
v 13.650000 3.375000 -16.875000
v 13.650000 6.187500 -16.875000
v 10.350000 3.375000 -16.575001
v 10.350000 6.187500 -16.575001
v 10.650000 3.375000 -16.575001
v 10.650000 6.187500 -16.575001
v 10.350000 3.375000 -16.875000
v 10.350000 6.187500 -16.875000
v 10.650000 3.375000 -16.875000
v 10.650000 6.187500 -16.875000
v 7.350000 3.375000 -16.575001
v 7.350000 6.187500 -16.575001
v 7.650000 3.375000 -16.575001
v 7.650000 6.187500 -16.575001
v 7.350000 3.375000 -16.875000
v 7.350000 6.187500 -16.875000
v 7.650000 3.375000 -16.875000
v 7.650000 6.187500 -16.875000
v 4.350000 3.375000 -16.575001
v 4.350000 6.187500 -16.575001
v 4.650000 3.375000 -16.575001
v 4.650000 6.187500 -16.575001
v 4.350000 3.375000 -16.875000
v 4.350000 6.187500 -16.875000
v 4.650000 3.375000 -16.875000
v 4.650000 6.187500 -16.875000
v 1.350000 3.375000 -16.575001
v 1.350000 6.187500 -16.575001
v 1.650000 3.375000 -16.575001
v 1.650000 6.187500 -16.575001
v 1.350000 3.375000 -16.875000
v 1.350000 6.187500 -16.875000
v 1.650000 3.375000 -16.875000
v 1.650000 6.187500 -16.875000
v -1.650000 3.375000 -16.575001
v -1.650000 6.187500 -16.575001
v -1.350000 3.375000 -16.575001
v -1.350000 6.187500 -16.575001
v -1.650000 3.375000 -16.875000
v -1.650000 6.187500 -16.875000
v -1.350000 3.375000 -16.875000
v -1.350000 6.187500 -16.875000
v -4.650000 3.375000 -16.575001
v -4.650000 6.187500 -16.575001
v -4.350000 3.375000 -16.575001
v -4.350000 6.187500 -16.575001
v -4.650000 3.375000 -16.875000
v -4.650000 6.187500 -16.875000
v -4.350000 3.375000 -16.875000
v -4.350000 6.187500 -16.875000
v -7.650000 3.375000 -16.575001
v -7.650000 6.187500 -16.575001
v -7.350000 3.375000 -16.575001
v -7.350000 6.187500 -16.575001
v -7.650000 3.375000 -16.875000
v -7.650000 6.187500 -16.875000
v -7.350000 3.375000 -16.875000
v -7.350000 6.187500 -16.875000
v -10.650000 3.375000 -16.575001
v -10.650000 6.187500 -16.575001
v -10.350000 3.375000 -16.575001
v -10.350000 6.187500 -16.575001
v -10.650000 3.375000 -16.875000
v -10.650000 6.187500 -16.875000
v -10.350000 3.375000 -16.875000
v -10.350000 6.187500 -16.875000
v -13.650000 3.375000 -16.575001
v -13.650000 6.187500 -16.575001
v -13.350000 3.375000 -16.575001
v -13.350000 6.187500 -16.575001
v -13.650000 3.375000 -16.875000
v -13.650000 6.187500 -16.875000
v -13.350000 3.375000 -16.875000
v -13.350000 6.187500 -16.875000
vn 0.0000 0.0000 -1.0000
vn 1.0000 0.0000 0.0000
vn 0.0000 0.0000 1.0000
vn -1.0000 0.0000 0.0000
vn 0.0000 -1.0000 0.0000
vn 0.0000 1.0000 0.0000
s off
f 9//7 10//7 12//7 11//7
f 11//8 12//8 16//8 15//8
f 15//9 16//9 14//9 13//9
f 13//10 14//10 10//10 9//10
f 11//11 15//11 13//11 9//11
f 16//12 12//12 10//12 14//12
f 17//7 18//7 20//7 19//7
f 19//8 20//8 24//8 23//8
f 23//9 24//9 22//9 21//9
f 21//10 22//10 18//10 17//10
f 19//11 23//11 21//11 17//11
f 24//12 20//12 18//12 22//12
f 25//7 26//7 28//7 27//7
f 27//8 28//8 32//8 31//8
f 31//9 32//9 30//9 29//9
f 29//10 30//10 26//10 25//10
f 27//11 31//11 29//11 25//11
f 32//12 28//12 26//12 30//12
f 33//7 34//7 36//7 35//7
f 35//8 36//8 40//8 39//8
f 39//9 40//9 38//9 37//9
f 37//10 38//10 34//10 33//10
f 35//11 39//11 37//11 33//11
f 40//12 36//12 34//12 38//12
f 41//7 42//7 44//7 43//7
f 43//8 44//8 48//8 47//8
f 47//9 48//9 46//9 45//9
f 45//10 46//10 42//10 41//10
f 43//11 47//11 45//11 41//11
f 48//12 44//12 42//12 46//12
f 49//7 50//7 52//7 51//7
f 51//8 52//8 56//8 55//8
f 55//9 56//9 54//9 53//9
f 53//10 54//10 50//10 49//10
f 51//11 55//11 53//11 49//11
f 56//12 52//12 50//12 54//12
f 57//7 58//7 60//7 59//7
f 59//8 60//8 64//8 63//8
f 63//9 64//9 62//9 61//9
f 61//10 62//10 58//10 57//10
f 59//11 63//11 61//11 57//11
f 64//12 60//12 58//12 62//12
f 65//7 66//7 68//7 67//7
f 67//8 68//8 72//8 71//8
f 71//9 72//9 70//9 69//9
f 69//10 70//10 66//10 65//10
f 67//11 71//11 69//11 65//11
f 72//12 68//12 66//12 70//12
f 73//7 74//7 76//7 75//7
f 75//8 76//8 80//8 79//8
f 79//9 80//9 78//9 77//9
f 77//10 78//10 74//10 73//10
f 75//11 79//11 77//11 73//11
f 80//12 76//12 74//12 78//12
f 81//7 82//7 84//7 83//7
f 83//8 84//8 88//8 87//8
f 87//9 88//9 86//9 85//9
f 85//10 86//10 82//10 81//10
f 83//11 87//11 85//11 81//11
f 88//12 84//12 82//12 86//12
f 89//9 91//9 92//9 90//9
f 91//8 95//8 96//8 92//8
f 95//7 93//7 94//7 96//7
f 93//10 89//10 90//10 94//10
f 91//11 89//11 93//11 95//11
f 96//12 94//12 90//12 92//12
f 97//9 99//9 100//9 98//9
f 99//8 103//8 104//8 100//8
f 103//7 101//7 102//7 104//7
f 101//10 97//10 98//10 102//10
f 99//11 97//11 101//11 103//11
f 104//12 102//12 98//12 100//12
f 105//9 107//9 108//9 106//9
f 107//8 111//8 112//8 108//8
f 111//7 109//7 110//7 112//7
f 109//10 105//10 106//10 110//10
f 107//11 105//11 109//11 111//11
f 112//12 110//12 106//12 108//12
f 113//9 115//9 116//9 114//9
f 115//8 119//8 120//8 116//8
f 119//7 117//7 118//7 120//7
f 117//10 113//10 114//10 118//10
f 115//11 113//11 117//11 119//11
f 120//12 118//12 114//12 116//12
f 121//9 123//9 124//9 122//9
f 123//8 127//8 128//8 124//8
f 127//7 125//7 126//7 128//7
f 125//10 121//10 122//10 126//10
f 123//11 121//11 125//11 127//11
f 128//12 126//12 122//12 124//12
f 129//9 131//9 132//9 130//9
f 131//8 135//8 136//8 132//8
f 135//7 133//7 134//7 136//7
f 133//10 129//10 130//10 134//10
f 131//11 129//11 133//11 135//11
f 136//12 134//12 130//12 132//12
f 137//9 139//9 140//9 138//9
f 139//8 143//8 144//8 140//8
f 143//7 141//7 142//7 144//7
f 141//10 137//10 138//10 142//10
f 139//11 137//11 141//11 143//11
f 144//12 142//12 138//12 140//12
f 145//9 147//9 148//9 146//9
f 147//8 151//8 152//8 148//8
f 151//7 149//7 150//7 152//7
f 149//10 145//10 146//10 150//10
f 147//11 145//11 149//11 151//11
f 152//12 150//12 146//12 148//12
f 153//9 155//9 156//9 154//9
f 155//8 159//8 160//8 156//8
f 159//7 157//7 158//7 160//7
f 157//10 153//10 154//10 158//10
f 155//11 153//11 157//11 159//11
f 160//12 158//12 154//12 156//12
f 161//9 163//9 164//9 162//9
f 163//8 167//8 168//8 164//8
f 167//7 165//7 166//7 168//7
f 165//10 161//10 162//10 166//10
f 163//11 161//11 165//11 167//11
f 168//12 166//12 162//12 164//12
o underWindow_B1-1_立方体.214
v 13.350000 3.375000 -20.174999
v 13.350000 4.125000 -20.174999
v 13.350000 3.375000 -19.875000
v 13.350000 4.125000 -19.875000
v 10.650000 3.375000 -20.174999
v 10.650001 4.125000 -20.174999
v 10.650001 3.375000 -19.875000
v 10.650000 4.125000 -19.875000
v 10.349999 3.375000 -20.174999
v 10.349999 4.125000 -20.174999
v 10.349999 3.375000 -19.875000
v 10.349999 4.125000 -19.875000
v 7.649999 3.375000 -20.174999
v 7.650000 4.125000 -20.174999
v 7.650000 3.375000 -19.875000
v 7.649999 4.125000 -19.875000
v 7.349999 3.375000 -20.174999
v 7.349999 4.125000 -20.174999
v 7.349999 3.375000 -19.875000
v 7.349999 4.125000 -19.875000
v 4.649998 3.375000 -20.174999
v 4.649999 4.125000 -20.174999
v 4.649999 3.375000 -19.875000
v 4.649998 4.125000 -19.875000
v 4.349998 3.375000 -20.174999
v 4.349998 4.125000 -20.174999
v 4.349998 3.375000 -19.875000
v 4.349998 4.125000 -19.875000
v 1.649998 3.375000 -20.174999
v 1.649999 4.125000 -20.174999
v 1.649999 3.375000 -19.875000
v 1.649998 4.125000 -19.875000
v -13.350000 3.375000 -20.174999
v -13.350000 4.125000 -20.174999
v -13.350000 3.375000 -19.875000
v -13.350000 4.125000 -19.875000
v -10.650000 3.375000 -20.174999
v -10.650002 4.125000 -20.174999
v -10.650002 3.375000 -19.875000
v -10.650000 4.125000 -19.875000
v -10.350000 3.375000 -20.174999
v -10.350000 4.125000 -20.174999
v -10.350000 3.375000 -19.875000
v -10.350000 4.125000 -19.875000
v -7.649998 3.375000 -20.174999
v -7.650000 4.125000 -20.174999
v -7.650000 3.375000 -19.875000
v -7.649998 4.125000 -19.875000
v -7.349998 3.375000 -20.174999
v -7.349998 4.125000 -20.174999
v -7.349998 3.375000 -19.875000
v -7.349998 4.125000 -19.875000
v -4.649998 3.375000 -20.174999
v -4.650000 4.125000 -20.174999
v -4.650000 3.375000 -19.875000
v -4.649998 4.125000 -19.875000
v -4.349998 3.375000 -20.174999
v -4.349998 4.125000 -20.174999
v -4.349998 3.375000 -19.875000
v -4.349998 4.125000 -19.875000
v -1.649998 3.375000 -20.174999
v -1.649999 4.125000 -20.174999
v -1.649999 3.375000 -19.875000
v -1.649998 4.125000 -19.875000
vn 0.0000 0.0000 -1.0000
vn 1.0000 0.0000 0.0000
vn 0.0000 1.0000 0.0000
vn 0.0000 -1.0000 -0.0000
vn 0.0000 0.0000 1.0000
vn -1.0000 0.0000 0.0000
s off
f 173//13 174//13 170//13 169//13
f 169//14 170//14 172//14 171//14
f 172//15 170//15 174//15 176//15
f 169//16 171//16 175//16 173//16
f 171//17 172//17 176//17 175//17
f 174//18 173//18 175//18 176//18
f 181//13 182//13 178//13 177//13
f 177//14 178//14 180//14 179//14
f 180//15 178//15 182//15 184//15
f 177//16 179//16 183//16 181//16
f 179//17 180//17 184//17 183//17
f 182//18 181//18 183//18 184//18
f 189//13 190//13 186//13 185//13
f 185//14 186//14 188//14 187//14
f 188//15 186//15 190//15 192//15
f 185//16 187//16 191//16 189//16
f 187//17 188//17 192//17 191//17
f 190//18 189//18 191//18 192//18
f 197//13 198//13 194//13 193//13
f 193//14 194//14 196//14 195//14
f 196//15 194//15 198//15 200//15
f 193//16 195//16 199//16 197//16
f 195//17 196//17 200//17 199//17
f 198//18 197//18 199//18 200//18
f 205//13 201//13 202//13 206//13
f 201//18 203//18 204//18 202//18
f 204//15 208//15 206//15 202//15
f 201//16 205//16 207//16 203//16
f 203//17 207//17 208//17 204//17
f 206//14 208//14 207//14 205//14
f 213//13 209//13 210//13 214//13
f 209//18 211//18 212//18 210//18
f 212//15 216//15 214//15 210//15
f 209//16 213//16 215//16 211//16
f 211//17 215//17 216//17 212//17
f 214//14 216//14 215//14 213//14
f 221//13 217//13 218//13 222//13
f 217//18 219//18 220//18 218//18
f 220//15 224//15 222//15 218//15
f 217//16 221//16 223//16 219//16
f 219//17 223//17 224//17 220//17
f 222//14 224//14 223//14 221//14
f 229//13 225//13 226//13 230//13
f 225//18 227//18 228//18 226//18
f 228//15 232//15 230//15 226//15
f 225//16 229//16 231//16 227//16
f 227//17 231//17 232//17 228//17
f 230//14 232//14 231//14 229//14
o base_B1_立方体.453
v 10.275000 -0.300000 -20.200001
v 10.275000 3.100000 -20.200001
v 10.725000 -0.300000 -20.200001
v 10.725000 3.100000 -20.200001
v 10.275000 -0.300000 -16.549999
v 10.275000 3.100000 -16.549999
v 10.725000 -0.300000 -16.549999
v 10.725000 3.100000 -16.549999
v 10.725000 -0.300000 -17.000000
v 10.725000 -0.300000 -19.750000
v 10.725000 3.100000 -19.750000
v 10.725000 3.100000 -17.000000
v 10.275000 -0.300000 -19.750000
v 10.275000 -0.300000 -17.000000
v 10.275000 3.100000 -17.000000
v 10.275000 3.100000 -19.750000
v 10.275000 2.650000 -20.200001
v 10.725000 2.650000 -20.200001
v 10.725000 2.650000 -16.549999
v 10.275000 2.650000 -16.549999
v 10.275000 2.650000 -17.000000
v 10.275000 2.650000 -19.750000
v 10.725000 2.650000 -19.750000
v 10.725000 2.650000 -17.000000
v 1.275000 -0.300000 -20.200001
v 1.275000 3.100000 -20.200001
v 1.725000 -0.300000 -20.200001
v 1.725000 3.100000 -20.200001
v 1.275000 -0.300000 -16.549999
v 1.275000 3.100000 -16.549999
v 1.725000 -0.300000 -16.549999
v 1.725000 3.100000 -16.549999
v 1.725000 -0.300000 -17.000000
v 1.725000 -0.300000 -19.750000
v 1.725000 3.100000 -19.750000
v 1.725000 3.100000 -17.000000
v 1.275000 -0.300000 -19.750000
v 1.275000 -0.300000 -17.000000
v 1.275000 3.100000 -17.000000
v 1.275000 3.100000 -19.750000
v 1.275000 2.650000 -20.200001
v 1.725000 2.650000 -20.200001
v 1.725000 2.650000 -16.549999
v 1.275000 2.650000 -16.549999
v 1.275000 2.650000 -17.000000
v 1.275000 2.650000 -19.750000
v 1.725000 2.650000 -19.750000
v 1.725000 2.650000 -17.000000
v -10.275000 -0.300000 -20.200001
v -10.275000 3.100000 -20.200001
v -10.725000 -0.300000 -20.200001
v -10.725000 3.100000 -20.200001
v -10.275000 -0.300000 -16.549999
v -10.275000 3.100000 -16.549999
v -10.725000 -0.300000 -16.549999
v -10.725000 3.100000 -16.549999
v -10.725000 -0.300000 -17.000000
v -10.725000 -0.300000 -19.750000
v -10.725000 3.100000 -19.750000
v -10.725000 3.100000 -17.000000
v -10.275000 -0.300000 -19.750000
v -10.275000 -0.300000 -17.000000
v -10.275000 3.100000 -17.000000
v -10.275000 3.100000 -19.750000
v -10.275000 2.650000 -20.200001
v -10.725000 2.650000 -20.200001
v -10.725000 2.650000 -16.549999
v -10.275000 2.650000 -16.549999
v -10.275000 2.650000 -17.000000
v -10.275000 2.650000 -19.750000
v -10.725000 2.650000 -19.750000
v -10.725000 2.650000 -17.000000
v -1.275000 -0.300000 -20.200001
v -1.275000 3.100000 -20.200001
v -1.725000 -0.300000 -20.200001
v -1.725000 3.100000 -20.200001
v -1.275000 -0.300000 -16.549999
v -1.275000 3.100000 -16.549999
v -1.725000 -0.300000 -16.549999
v -1.725000 3.100000 -16.549999
v -1.725000 -0.300000 -17.000000
v -1.725000 -0.300000 -19.750000
v -1.725000 3.100000 -19.750000
v -1.725000 3.100000 -17.000000
v -1.275000 -0.300000 -19.750000
v -1.275000 -0.300000 -17.000000
v -1.275000 3.100000 -17.000000
v -1.275000 3.100000 -19.750000
v -1.275000 2.650000 -20.200001
v -1.725000 2.650000 -20.200001
v -1.725000 2.650000 -16.549999
v -1.275000 2.650000 -16.549999
v -1.275000 2.650000 -17.000000
v -1.275000 2.650000 -19.750000
v -1.725000 2.650000 -19.750000
v -1.725000 2.650000 -17.000000
vn 0.0000 0.0000 -1.0000
vn 1.0000 0.0000 0.0000
vn 0.0000 0.0000 1.0000
vn -1.0000 0.0000 0.0000
vn 0.0000 -1.0000 0.0000
vn 0.0000 1.0000 0.0000
s off
f 249//19 234//19 236//19 250//19
f 256//20 244//20 240//20 251//20
f 251//21 240//21 238//21 252//21
f 254//22 248//22 234//22 249//22
f 241//23 239//23 237//23 246//23
f 243//24 236//24 234//24 248//24
f 240//24 244//24 247//24 238//24
f 244//24 243//24 248//24 247//24
f 235//23 242//23 245//23 233//23
f 253//19 256//19 241//19 246//19
f 252//22 238//22 247//22 253//22
f 253//22 247//22 248//22 254//22
f 250//20 236//20 243//20 255//20
f 255//20 243//20 244//20 256//20
f 235//20 250//20 255//20 242//20
f 237//22 252//22 253//22 246//22
f 245//22 254//22 249//22 233//22
f 239//21 251//21 252//21 237//21
f 241//20 256//20 251//20 239//20
f 233//19 249//19 250//19 235//19
f 256//23 253//23 254//23 255//23
f 255//21 254//21 245//21 242//21
f 273//19 258//19 260//19 274//19
f 280//20 268//20 264//20 275//20
f 275//21 264//21 262//21 276//21
f 278//22 272//22 258//22 273//22
f 265//23 263//23 261//23 270//23
f 267//24 260//24 258//24 272//24
f 264//24 268//24 271//24 262//24
f 268//24 267//24 272//24 271//24
f 259//23 266//23 269//23 257//23
f 277//19 280//19 265//19 270//19
f 276//22 262//22 271//22 277//22
f 277//22 271//22 272//22 278//22
f 274//20 260//20 267//20 279//20
f 279//20 267//20 268//20 280//20
f 259//20 274//20 279//20 266//20
f 261//22 276//22 277//22 270//22
f 269//22 278//22 273//22 257//22
f 263//21 275//21 276//21 261//21
f 265//20 280//20 275//20 263//20
f 257//19 273//19 274//19 259//19
f 280//23 277//23 278//23 279//23
f 279//21 278//21 269//21 266//21
f 297//19 298//19 284//19 282//19
f 304//22 299//22 288//22 292//22
f 299//21 300//21 286//21 288//21
f 302//20 297//20 282//20 296//20
f 289//23 294//23 285//23 287//23
f 291//24 296//24 282//24 284//24
f 288//24 286//24 295//24 292//24
f 292//24 295//24 296//24 291//24
f 283//23 281//23 293//23 290//23
f 301//19 294//19 289//19 304//19
f 300//20 301//20 295//20 286//20
f 301//20 302//20 296//20 295//20
f 298//22 303//22 291//22 284//22
f 303//22 304//22 292//22 291//22
f 283//22 290//22 303//22 298//22
f 285//20 294//20 301//20 300//20
f 293//20 281//20 297//20 302//20
f 287//21 285//21 300//21 299//21
f 289//22 287//22 299//22 304//22
f 281//19 283//19 298//19 297//19
f 304//23 303//23 302//23 301//23
f 303//21 290//21 293//21 302//21
f 321//19 322//19 308//19 306//19
f 328//22 323//22 312//22 316//22
f 323//21 324//21 310//21 312//21
f 326//20 321//20 306//20 320//20
f 313//23 318//23 309//23 311//23
f 315//24 320//24 306//24 308//24
f 312//24 310//24 319//24 316//24
f 316//24 319//24 320//24 315//24
f 307//23 305//23 317//23 314//23
f 325//19 318//19 313//19 328//19
f 324//20 325//20 319//20 310//20
f 325//20 326//20 320//20 319//20
f 322//22 327//22 315//22 308//22
f 327//22 328//22 316//22 315//22
f 307//22 314//22 327//22 322//22
f 309//20 318//20 325//20 324//20
f 317//20 305//20 321//20 326//20
f 311//21 309//21 324//21 323//21
f 313//22 311//22 323//22 328//22
f 305//19 307//19 322//19 321//19
f 328//23 327//23 326//23 325//23
f 327//21 314//21 317//21 326//21
o underWindow_B1-2_立方体.030
v 13.350000 3.375000 -16.874998
v 13.350000 4.125000 -16.874998
v 13.350000 3.375000 -16.574999
v 13.350000 4.125000 -16.574999
v 10.650000 3.375000 -16.874998
v 10.650001 4.125000 -16.874998
v 10.650001 3.375000 -16.574999
v 10.650000 4.125000 -16.574999
v 10.349999 3.375000 -16.874998
v 10.349999 4.125000 -16.874998
v 10.349999 3.375000 -16.574999
v 10.349999 4.125000 -16.574999
v 7.649999 3.375000 -16.874998
v 7.650000 4.125000 -16.874998
v 7.650000 3.375000 -16.574999
v 7.649999 4.125000 -16.574999
v 7.349999 3.375000 -16.874998
v 7.349999 4.125000 -16.874998
v 7.349999 3.375000 -16.574999
v 7.349999 4.125000 -16.574999
v 4.649998 3.375000 -16.874998
v 4.649999 4.125000 -16.874998
v 4.649999 3.375000 -16.574999
v 4.649998 4.125000 -16.574999
v 4.349998 3.375000 -16.874998
v 4.349998 4.125000 -16.874998
v 4.349998 3.375000 -16.574999
v 4.349998 4.125000 -16.574999
v 1.649998 3.375000 -16.874998
v 1.649999 4.125000 -16.874998
v 1.649999 3.375000 -16.574999
v 1.649998 4.125000 -16.574999
v 1.349998 3.375000 -16.874998
v 1.349998 4.125000 -16.874998
v 1.349998 3.375000 -16.574999
v 1.349998 4.125000 -16.574999
v -1.350003 3.375000 -16.874998
v -1.350002 4.125000 -16.874998
v -1.350002 3.375000 -16.574999
v -1.350003 4.125000 -16.574999
v -1.650003 3.375000 -16.874998
v -1.650003 4.125000 -16.874998
v -1.650003 3.375000 -16.574999
v -1.650003 4.125000 -16.574999
v -4.350004 3.375000 -16.874998
v -4.350002 4.125000 -16.874998
v -4.350002 3.375000 -16.574999
v -4.350004 4.125000 -16.574999
v -4.650003 3.375000 -16.874998
v -4.650003 4.125000 -16.874998
v -4.650003 3.375000 -16.574999
v -4.650003 4.125000 -16.574999
v -7.350004 3.375000 -16.874998
v -7.350002 4.125000 -16.874998
v -7.350002 3.375000 -16.574999
v -7.350004 4.125000 -16.574999
v -7.650003 3.375000 -16.874998
v -7.650003 4.125000 -16.874998
v -7.650003 3.375000 -16.574999
v -7.650003 4.125000 -16.574999
v -10.350004 3.375000 -16.874998
v -10.350002 4.125000 -16.874998
v -10.350002 3.375000 -16.574999
v -10.350004 4.125000 -16.574999
v -10.650003 3.375000 -16.874998
v -10.650003 4.125000 -16.874998
v -10.650003 3.375000 -16.574999
v -10.650003 4.125000 -16.574999
v -13.350004 3.375000 -16.874998
v -13.350002 4.125000 -16.874998
v -13.350002 3.375000 -16.574999
v -13.350004 4.125000 -16.574999
vn 0.0000 0.0000 -1.0000
vn 1.0000 0.0000 0.0000
vn 0.0000 1.0000 0.0000
vn 0.0000 -1.0000 -0.0000
vn 0.0000 0.0000 1.0000
vn -1.0000 0.0000 0.0000
s off
f 333//25 334//25 330//25 329//25
f 329//26 330//26 332//26 331//26
f 332//27 330//27 334//27 336//27
f 329//28 331//28 335//28 333//28
f 331//29 332//29 336//29 335//29
f 334//30 333//30 335//30 336//30
f 341//25 342//25 338//25 337//25
f 337//26 338//26 340//26 339//26
f 340//27 338//27 342//27 344//27
f 337//28 339//28 343//28 341//28
f 339//29 340//29 344//29 343//29
f 342//30 341//30 343//30 344//30
f 349//25 350//25 346//25 345//25
f 345//26 346//26 348//26 347//26
f 348//27 346//27 350//27 352//27
f 345//28 347//28 351//28 349//28
f 347//29 348//29 352//29 351//29
f 350//30 349//30 351//30 352//30
f 357//25 358//25 354//25 353//25
f 353//26 354//26 356//26 355//26
f 356//27 354//27 358//27 360//27
f 353//28 355//28 359//28 357//28
f 355//29 356//29 360//29 359//29
f 358//30 357//30 359//30 360//30
f 365//25 366//25 362//25 361//25
f 361//26 362//26 364//26 363//26
f 364//27 362//27 366//27 368//27
f 361//28 363//28 367//28 365//28
f 363//29 364//29 368//29 367//29
f 366//30 365//30 367//30 368//30
f 373//25 374//25 370//25 369//25
f 369//26 370//26 372//26 371//26
f 372//27 370//27 374//27 376//27
f 369//28 371//28 375//28 373//28
f 371//29 372//29 376//29 375//29
f 374//30 373//30 375//30 376//30
f 381//25 382//25 378//25 377//25
f 377//26 378//26 380//26 379//26
f 380//27 378//27 382//27 384//27
f 377//28 379//28 383//28 381//28
f 379//29 380//29 384//29 383//29
f 382//30 381//30 383//30 384//30
f 389//25 390//25 386//25 385//25
f 385//26 386//26 388//26 387//26
f 388//27 386//27 390//27 392//27
f 385//28 387//28 391//28 389//28
f 387//29 388//29 392//29 391//29
f 390//30 389//30 391//30 392//30
f 397//25 398//25 394//25 393//25
f 393//26 394//26 396//26 395//26
f 396//27 394//27 398//27 400//27
f 393//28 395//28 399//28 397//28
f 395//29 396//29 400//29 399//29
f 398//30 397//30 399//30 400//30
