# Blender v2.93.0 OBJ File: '3dMap.blend'
# www.blender.org
o レンガ_平面
v -4.500000 -0.300000 -37.500000
v -4.499999 0.000000 52.875000
v 13.500004 -0.300000 -37.500000
v 13.500004 0.000000 52.875000
v -4.499999 0.000000 -10.500000
v 13.500004 0.000000 -10.500000
v 13.500004 -0.120000 -11.250000
v 13.500004 -0.180000 -12.000000
v 13.500004 -0.240000 -12.750000
v 13.500004 -0.300000 -13.500000
v -4.499999 -0.300000 -13.500004
v -4.499999 -0.240000 -12.750004
v -4.499999 -0.180000 -12.000000
v -4.499999 -0.120000 -11.250000
v -4.499999 -0.060000 -11.250000
v 13.500004 -0.060000 -11.250000
v 13.500004 -0.120000 -12.000000
v -4.499999 -0.120000 -12.000000
v 13.500004 -0.180000 -12.750000
v -4.499999 -0.180000 -12.750004
v 13.500004 -0.240000 -13.500000
v -4.499999 -0.240000 -13.500004
v -4.499999 -0.060000 -10.500000
v 13.500004 -0.060000 -10.500000
v -4.500000 0.000000 2.625000
v -5.012112 0.000000 2.574558
v -5.504543 0.000000 2.425182
v -5.958370 0.000000 2.182606
v -6.356155 0.000000 1.856155
v -6.682608 0.000000 1.458370
v -6.925184 0.000000 1.004543
v -7.074560 0.000000 0.512108
v -7.125000 0.000000 -0.000004
v -7.074560 0.000000 -0.512115
v -6.925182 0.000000 -1.004547
v -6.682606 0.000000 -1.458374
v -6.356153 0.000000 -1.856159
v -5.958370 0.000000 -2.182610
v -5.504541 0.000000 -2.425186
v -5.012110 0.000000 -2.574562
v -4.499997 0.000000 -2.625000
v 4.500001 -0.300000 -37.500000
v 4.500002 0.000000 52.875000
v 4.500002 -0.060000 -10.500000
v 4.500002 -0.180000 -12.750000
v 4.500002 -0.060000 -11.250000
v 4.500002 -0.300000 -13.500000
v 4.500002 -0.240000 -12.750000
v 4.500002 -0.180000 -12.000000
v 4.500002 -0.240000 -13.500000
v 4.500002 -0.120000 -12.000000
v 4.500002 -0.120000 -11.250000
v 4.500002 0.000000 -10.500000
vn 0.0000 0.0000 -1.0000
vn 0.0000 1.0000 0.0000
s off
f 5//1 44//1 23//1
f 11//2 42//2 1//2
f 12//2 50//2 22//2
f 13//2 45//2 20//2
f 14//2 51//2 18//2
f 15//1 52//1 14//1
f 18//1 49//1 13//1
f 20//1 48//1 12//1
f 22//1 47//1 11//1
f 23//2 46//2 15//2
f 35//2 31//2 25//2
f 48//2 21//2 50//2
f 44//2 16//2 46//2
f 51//1 8//1 49//1
f 49//2 19//2 45//2
f 43//2 6//2 53//2
f 53//1 24//1 44//1
f 45//1 9//1 48//1
f 52//2 17//2 51//2
f 47//2 3//2 42//2
f 50//1 10//1 47//1
f 46//1 7//1 52//1
f 5//1 53//1 44//1
f 11//2 47//2 42//2
f 12//2 48//2 50//2
f 13//2 49//2 45//2
f 14//2 52//2 51//2
f 15//1 46//1 52//1
f 18//1 51//1 49//1
f 20//1 45//1 48//1
f 22//1 50//1 47//1
f 23//2 44//2 46//2
f 41//2 40//2 39//2
f 39//2 38//2 41//2
f 38//2 37//2 41//2
f 37//2 36//2 41//2
f 36//2 35//2 41//2
f 35//2 34//2 33//2
f 33//2 32//2 35//2
f 32//2 31//2 35//2
f 31//2 30//2 25//2
f 30//2 29//2 25//2
f 29//2 28//2 27//2
f 27//2 26//2 29//2
f 26//2 25//2 29//2
f 25//2 2//2 43//2
f 43//2 53//2 25//2
f 53//2 5//2 41//2
f 53//2 41//2 25//2
f 25//2 41//2 35//2
f 48//2 9//2 21//2
f 44//2 24//2 16//2
f 51//1 17//1 8//1
f 49//2 8//2 19//2
f 43//2 4//2 6//2
f 53//1 6//1 24//1
f 45//1 19//1 9//1
f 52//2 7//2 17//2
f 47//2 10//2 3//2
f 50//1 21//1 10//1
f 46//1 16//1 7//1
o 立方体_立方体.435
v -13.500000 -1.000000 -37.124996
v -13.500000 3.000000 -37.124996
v -7.125000 -1.000000 -37.124996
v -7.125000 2.250000 -37.124996
v -13.500000 -1.000000 52.875004
v -13.500000 3.000000 52.875004
v -7.125000 -1.000000 52.875004
v -7.125000 2.250000 52.875004
v -4.500000 2.250000 -37.124996
v -4.500000 -1.000000 -37.124996
v -4.500000 -1.000000 52.875004
v -4.500000 2.250000 52.875004
v -4.499998 -1.000000 2.625000
v -4.499998 2.250000 2.625000
v -5.012112 -1.000000 2.574562
v -5.012112 2.250000 2.574562
v -5.504543 -1.000000 2.425184
v -5.504543 2.250000 2.425184
v -5.958370 -1.000000 2.182608
v -5.958370 2.250000 2.182608
v -6.356155 -1.000000 1.856155
v -6.356155 2.250000 1.856155
v -6.682607 -1.000000 1.458372
v -6.682607 2.250000 1.458372
v -6.925184 -1.000000 1.004544
v -6.925184 2.250000 1.004544
v -7.074561 -1.000000 0.512112
v -7.074561 2.250000 0.512112
v -7.125000 -1.000000 -0.000001
v -7.125000 2.250000 -0.000001
v -7.074561 -1.000000 -0.512113
v -7.074561 2.250000 -0.512113
v -6.925183 -1.000000 -1.004545
v -6.925183 2.250000 -1.004545
v -6.682606 -1.000000 -1.458374
v -6.682606 2.250000 -1.458374
v -6.356154 -1.000000 -1.856157
v -6.356154 2.250000 -1.856157
v -5.958370 -1.000000 -2.182609
v -5.958370 2.250000 -2.182609
v -5.504541 -1.000000 -2.425184
v -5.504541 2.250000 -2.425184
v -5.012110 -1.000000 -2.574562
v -5.012110 2.250000 -2.574562
v -4.499996 -1.000000 -2.625000
v -4.499996 2.250000 -2.625000
v -13.500000 -1.000000 0.000000
v -13.500000 3.000000 0.000000
v -24.000000 -1.000000 -37.124996
v -24.000000 3.000000 -37.124996
v -24.000000 3.000000 52.875004
v -24.000000 -1.000000 52.875004
v -24.000000 -1.000000 0.000000
v -24.000000 3.000000 0.000000
vn 0.0000 0.0000 -1.0000
vn 0.0000 0.0000 1.0000
vn 0.0000 -1.0000 0.0000
vn 0.1168 0.9932 0.0000
vn 0.0000 1.0000 0.0000
vn 1.0000 0.0000 0.0000
vn -1.0000 0.0000 0.0000
vn 0.1333 -0.7298 -0.6705
vn 0.6022 0.5827 -0.5458
vn 0.6022 -0.5827 -0.5458
vn 0.2616 -0.7298 -0.6316
vn 0.1333 0.7298 -0.6705
vn 0.3798 -0.7298 -0.5684
vn 0.2616 0.7298 -0.6316
vn 0.4834 -0.7298 -0.4834
vn 0.3798 0.7298 -0.5684
vn 0.5684 -0.7298 -0.3798
vn 0.4834 0.7298 -0.4834
vn 0.6316 -0.7298 -0.2616
vn 0.5684 0.7298 -0.3798
vn 0.6705 -0.7298 -0.1333
vn 0.6316 0.7298 -0.2616
vn 0.6836 -0.7298 0.0000
vn 0.6705 0.7298 -0.1333
vn 0.6705 -0.7298 0.1333
vn 0.7252 0.6885 0.0000
vn 0.6316 -0.7298 0.2616
vn 0.6705 0.7298 0.1333
vn 0.5684 -0.7298 0.3798
vn 0.6316 0.7298 0.2616
vn 0.4834 -0.7298 0.4834
vn 0.5684 0.7298 0.3798
vn 0.3798 -0.7298 0.5684
vn 0.4834 0.7298 0.4834
vn 0.2616 -0.7298 0.6316
vn 0.3798 0.7298 0.5684
vn 0.1333 -0.7298 0.6705
vn 0.2616 0.7298 0.6316
vn 0.6022 -0.5827 0.5458
vn 0.1333 0.7298 0.6705
vn 0.6022 0.5827 0.5458
s off
f 54//3 57//3 56//3
f 60//4 65//4 61//4
f 61//4 58//4 60//4
f 58//5 106//5 100//5
f 60//5 100//5 82//5
f 57//6 101//6 83//6
f 83//6 59//6 61//6
f 57//3 63//3 56//3
f 82//5 54//5 56//5
f 54//3 103//3 55//3
f 77//7 61//7 75//7
f 65//8 66//8 67//8
f 60//5 74//5 72//5
f 88//5 56//5 90//5
f 62//8 98//8 63//8
f 57//7 91//7 93//7
f 107//9 102//9 106//9
f 104//9 106//9 105//9
f 101//7 104//7 59//7
f 55//7 107//7 101//7
f 59//4 105//4 58//4
f 100//5 102//5 54//5
f 54//3 55//3 57//3
f 60//4 64//4 65//4
f 61//4 59//4 58//4
f 58//5 105//5 106//5
f 60//5 58//5 100//5
f 57//6 55//6 101//6
f 83//6 101//6 59//6
f 57//3 62//3 63//3
f 82//5 100//5 54//5
f 54//3 102//3 103//3
f 65//7 67//7 61//7
f 67//7 69//7 61//7
f 69//7 71//7 61//7
f 83//7 61//7 81//7
f 81//7 61//7 79//7
f 79//7 61//7 77//7
f 71//7 73//7 61//7
f 73//7 75//7 61//7
f 65//8 64//8 66//8
f 64//5 60//5 66//5
f 60//5 82//5 80//5
f 60//5 80//5 78//5
f 68//5 66//5 60//5
f 70//5 68//5 60//5
f 60//5 78//5 76//5
f 60//5 76//5 74//5
f 72//5 70//5 60//5
f 63//5 98//5 56//5
f 98//5 96//5 56//5
f 96//5 94//5 56//5
f 82//5 56//5 84//5
f 84//5 56//5 86//5
f 86//5 56//5 88//5
f 94//5 92//5 56//5
f 92//5 90//5 56//5
f 62//8 99//8 98//8
f 62//7 57//7 99//7
f 57//7 83//7 85//7
f 57//7 85//7 87//7
f 97//7 99//7 57//7
f 95//7 97//7 57//7
f 57//7 87//7 89//7
f 57//7 89//7 91//7
f 93//7 95//7 57//7
f 107//9 103//9 102//9
f 104//9 107//9 106//9
f 101//7 107//7 104//7
f 55//7 103//7 107//7
f 59//4 104//4 105//4
f 100//5 106//5 102//5
s 1
f 68//10 67//11 66//12
f 70//13 69//14 68//10
f 72//15 71//16 70//13
f 74//17 73//18 72//15
f 76//19 75//20 74//17
f 78//21 77//22 76//19
f 80//23 79//24 78//21
f 82//25 81//26 80//23
f 84//27 83//28 82//25
f 86//29 85//30 84//27
f 88//31 87//32 86//29
f 90//33 89//34 88//31
f 92//35 91//36 90//33
f 94//37 93//38 92//35
f 96//39 95//40 94//37
f 98//41 97//42 96//39
f 68//10 69//14 67//11
f 70//13 71//16 69//14
f 72//15 73//18 71//16
f 74//17 75//20 73//18
f 76//19 77//22 75//20
f 78//21 79//24 77//22
f 80//23 81//26 79//24
f 82//25 83//28 81//26
f 84//27 85//30 83//28
f 86//29 87//32 85//30
f 88//31 89//34 87//32
f 90//33 91//36 89//34
f 92//35 93//38 91//36
f 94//37 95//40 93//38
f 96//39 97//42 95//40
f 98//41 99//43 97//42
